<svg width="24" height="24" viewBox="0 0 24 24" fill="none" xmlns="http://www.w3.org/2000/svg">
<path d="M14 6.75H10C9.04 6.75 7.25 6.75 7.25 4C7.25 1.25 9.04 1.25 10 1.25H14C14.96 1.25 16.75 1.25 16.75 4C16.75 4.96 16.75 6.75 14 6.75ZM10 2.75C9.01 2.75 8.75 2.75 8.75 4C8.75 5.25 9.01 5.25 10 5.25H14C15.25 5.25 15.25 4.99 15.25 4C15.25 2.75 14.99 2.75 14 2.75H10Z" fill="black"/>
<path d="M15 22.75H9C3.38 22.75 2.25 20.17 2.25 16V9.99999C2.25 5.43999 3.9 3.48999 7.96 3.27999C8.37 3.25999 8.73 3.56999 8.75 3.98999C8.77 4.40999 8.45 4.74999 8.04 4.76999C5.2 4.92999 3.75 5.77999 3.75 9.99999V16C3.75 19.7 4.48 21.25 9 21.25H15C19.52 21.25 20.25 19.7 20.25 16V9.99999C20.25 5.77999 18.8 4.92999 15.96 4.76999C15.55 4.74999 15.23 4.38999 15.25 3.97999C15.27 3.56999 15.63 3.24999 16.04 3.26999C20.1 3.48999 21.75 5.43999 21.75 9.98999V15.99C21.75 20.17 20.62 22.75 15 22.75Z" fill="black"/>
<path d="M10.8852 17.5C10.4743 17.5 10.0863 17.3959 9.73252 17.1994C8.95649 16.7369 8.5 15.812 8.5 14.6442V11.8693C8.5 10.7016 8.95649 9.76505 9.74394 9.30257C10.5314 8.8401 11.5585 8.90947 12.5514 9.49913L14.9251 10.8866C15.918 11.4647 16.5 12.3318 16.5 13.2568C16.5 14.1817 15.918 15.0489 14.9137 15.627L12.5399 17.0144C11.9922 17.3381 11.4215 17.5 10.8852 17.5ZM10.8966 10.7363C10.7825 10.7363 10.6797 10.7594 10.5999 10.8056C10.3602 10.9444 10.2118 11.3375 10.2118 11.8693V14.6442C10.2118 15.1645 10.3602 15.5576 10.5999 15.7079C10.8395 15.8466 11.2504 15.7773 11.6954 15.5113L14.0692 14.1239C14.5143 13.858 14.7882 13.5342 14.7882 13.2568C14.7882 12.9793 14.5257 12.6555 14.0692 12.3896L11.6954 11.0022C11.3987 10.8288 11.1134 10.7363 10.8966 10.7363Z" fill="black"/>
</svg>
