<svg id="Layer_1" data-name="Layer 1" xmlns="http://www.w3.org/2000/svg" viewBox="0 0 105 36"><defs><style>.cls-1{fill:#fff;}.cls-2{fill:#ff8257;}</style></defs><path class="cls-1" d="M36.11,29.8a.18.18,0,0,1,0-.1V22a.14.14,0,0,1,.14-.14h1.33a.14.14,0,0,1,.14.14V25.2s0,0,0,0,0,0,0,0L40.37,22a.23.23,0,0,1,.17-.08H42c.06,0,.1,0,.11.06s0,.07,0,.12L39.6,25.29s0,.06,0,.08l2.68,4.31s0,.07,0,.08,0,.08-.11.08h-1.5a.16.16,0,0,1-.16-.09l-2-3.28s0,0,0,0l0,0-.72.9a.12.12,0,0,0,0,.07V29.7a.14.14,0,0,1-.14.14H36.21A.18.18,0,0,1,36.11,29.8Z"/><path class="cls-1" d="M48.22,29.72l-.34-1.11s0,0-.06,0H45s0,0-.06,0l-.33,1.11a.14.14,0,0,1-.15.12H43.05a.15.15,0,0,1-.1,0,.12.12,0,0,1,0-.12L45.39,22a.14.14,0,0,1,.15-.12h1.78a.14.14,0,0,1,.15.12l2.45,7.68a.08.08,0,0,1,0,.06c0,.06,0,.1-.13.1H48.37A.14.14,0,0,1,48.22,29.72Zm-2.79-2.39h2s.07,0,0-.07l-1-3.38s0,0,0,0l0,0-1,3.38A.05.05,0,0,0,45.43,27.33Z"/><path class="cls-1" d="M55.14,29.74l-1.42-3.15s0-.05-.07-.05H52.59s-.05,0-.05.06v3.1a.14.14,0,0,1-.14.14H51.07a.13.13,0,0,1-.09,0,.13.13,0,0,1,0-.1V22a.13.13,0,0,1,0-.1.13.13,0,0,1,.09,0h3.25a2.63,2.63,0,0,1,1.28.3,2.08,2.08,0,0,1,.85.84,2.55,2.55,0,0,1,.3,1.26,2.31,2.31,0,0,1-.38,1.33,2.1,2.1,0,0,1-1.08.77.06.06,0,0,0,0,.08l1.55,3.22a.25.25,0,0,1,0,.07q0,.09-.12.09H55.3A.17.17,0,0,1,55.14,29.74Zm-2.6-6.42v1.94s0,.06.05.06h1.49a1.09,1.09,0,0,0,.78-.29,1,1,0,0,0,.3-.74,1,1,0,0,0-.3-.74,1.09,1.09,0,0,0-.78-.29H52.59S52.54,23.28,52.54,23.32Z"/><path class="cls-1" d="M63.18,21.88h1.33a.18.18,0,0,1,.1,0,.13.13,0,0,1,0,.1V29.7a.13.13,0,0,1,0,.1.18.18,0,0,1-.1,0H63.18a.15.15,0,0,1-.09,0,.13.13,0,0,1,0-.1v-5s0,0,0,0a.05.05,0,0,0,0,0l-1.21,1.89a.16.16,0,0,1-.15.09H61a.17.17,0,0,1-.16-.09l-1.21-1.89a.05.05,0,0,0,0,0,0,0,0,0,0,0,.05v5a.13.13,0,0,1,0,.1.13.13,0,0,1-.09,0H58.05a.18.18,0,0,1-.1,0,.13.13,0,0,1,0-.1V22a.13.13,0,0,1,0-.1.18.18,0,0,1,.1,0h1.33a.17.17,0,0,1,.16.1l1.7,2.64c0,.05,0,.05.07,0L63,22A.18.18,0,0,1,63.18,21.88Z"/><path class="cls-1" d="M70.94,29.72l-.34-1.11a.05.05,0,0,0,0,0h-2.8a.07.07,0,0,0-.06,0l-.33,1.11a.14.14,0,0,1-.14.12H65.77a.15.15,0,0,1-.1,0,.16.16,0,0,1,0-.12L68.11,22a.16.16,0,0,1,.15-.12h1.79a.14.14,0,0,1,.14.12l2.46,7.68s0,0,0,.06,0,.1-.13.1H71.09A.16.16,0,0,1,70.94,29.72Zm-2.79-2.39h2s.06,0,0-.07l-1-3.38s0,0,0,0l0,0-1,3.38S68.11,27.33,68.15,27.33Z"/><path class="cls-1" d="M74.66,29.58a2.5,2.5,0,0,1-1-1,2.85,2.85,0,0,1-.36-1.44V24.54a2.85,2.85,0,0,1,.36-1.44,2.5,2.5,0,0,1,1-1,3.48,3.48,0,0,1,1.56-.34,3.38,3.38,0,0,1,1.53.33,2.39,2.39,0,0,1,1,.92,2.64,2.64,0,0,1,.37,1.38c0,.07,0,.11-.14.12l-1.33.08h0c-.08,0-.11,0-.11-.12a1.26,1.26,0,0,0-1.34-1.33,1.37,1.37,0,0,0-1,.36,1.33,1.33,0,0,0-.37,1v2.74a1.3,1.3,0,0,0,.37,1,1.37,1.37,0,0,0,1,.36,1.34,1.34,0,0,0,1-.36,1.3,1.3,0,0,0,.37-1c0-.09,0-.13.13-.13l1.33.06a.17.17,0,0,1,.1,0,.12.12,0,0,1,0,.08,2.67,2.67,0,0,1-.37,1.39,2.48,2.48,0,0,1-1,.93,3.68,3.68,0,0,1-3.09,0Z"/><path class="cls-1" d="M84.59,21.92a.18.18,0,0,1,.1,0H86a.14.14,0,0,1,.14.14V29.7a.14.14,0,0,1-.14.14H84.69a.14.14,0,0,1-.14-.14V26.57s0-.06,0-.06H82a.05.05,0,0,0-.06.06V29.7a.13.13,0,0,1,0,.1.18.18,0,0,1-.1,0H80.46a.15.15,0,0,1-.09,0,.13.13,0,0,1,0-.1V22a.13.13,0,0,1,0-.1.15.15,0,0,1,.09,0h1.33a.18.18,0,0,1,.1,0,.13.13,0,0,1,0,.1v3.06s0,.05.06.05H84.5s0,0,0-.05V22A.18.18,0,0,1,84.59,21.92Z"/><path class="cls-1" d="M92.41,29.72l-.35-1.11a.05.05,0,0,0,0,0h-2.8a.05.05,0,0,0,0,0l-.33,1.11a.16.16,0,0,1-.15.12H87.24a.18.18,0,0,1-.11,0,.16.16,0,0,1,0-.12L89.58,22a.14.14,0,0,1,.14-.12h1.79a.16.16,0,0,1,.15.12l2.45,7.68s0,0,0,.06,0,.1-.12.1H92.55A.14.14,0,0,1,92.41,29.72Zm-2.8-2.39h2s.06,0,0-.07l-1-3.38s0,0,0,0a.08.08,0,0,0,0,0l-1,3.38S89.57,27.33,89.61,27.33Z"/><path class="cls-1" d="M99.32,29.74,97.9,26.59a.06.06,0,0,0-.06-.05H96.78a.05.05,0,0,0-.06.06v3.1a.13.13,0,0,1,0,.1.15.15,0,0,1-.09,0H95.26a.18.18,0,0,1-.1,0,.13.13,0,0,1,0-.1V22a.13.13,0,0,1,0-.1.18.18,0,0,1,.1,0h3.25a2.59,2.59,0,0,1,1.27.3,2.11,2.11,0,0,1,.86.84,2.55,2.55,0,0,1,.3,1.26,2.25,2.25,0,0,1-.39,1.33,2.1,2.1,0,0,1-1.08.77s0,.05,0,.08L101,29.68a.13.13,0,0,1,0,.07c0,.06-.05.09-.13.09h-1.4A.18.18,0,0,1,99.32,29.74Zm-2.6-6.42v1.94a.05.05,0,0,0,.06.06h1.49a1.09,1.09,0,0,0,.78-.29,1,1,0,0,0,.3-.74,1,1,0,0,0-.3-.74,1.09,1.09,0,0,0-.78-.29H96.78A.05.05,0,0,0,96.72,23.32Z"/><path class="cls-1" d="M102.14,29.8a.13.13,0,0,1,0-.1V22a.13.13,0,0,1,0-.1.15.15,0,0,1,.09,0h1.33a.18.18,0,0,1,.1,0,.13.13,0,0,1,0,.1V29.7a.13.13,0,0,1,0,.1.18.18,0,0,1-.1,0h-1.33A.15.15,0,0,1,102.14,29.8Z"/><polygon class="cls-1" points="80.12 18.31 75.42 17.25 72.89 21.11 72.89 11.71 77.74 16.14 80.12 18.31"/><path class="cls-2" d="M85.58,13.7a.11.11,0,0,1,0,.09v1.15a.13.13,0,0,1,0,.1.18.18,0,0,1-.1,0H85s-.06,0-.06.05V17a.11.11,0,0,1,0,.09.13.13,0,0,1-.1,0H83.47a.1.1,0,0,1-.09,0,.11.11,0,0,1,0-.09V15.13s0-.05-.06-.05H79.79a.18.18,0,0,1-.1,0,.17.17,0,0,1,0-.1V14a.67.67,0,0,1,0-.17l2-4.59a.16.16,0,0,1,.16-.1h1.42c.06,0,.09,0,.11,0s0,.06,0,.12l-1.9,4.26a0,0,0,0,0,0,0l0,0h1.73a.05.05,0,0,0,.06-.06V12.19a.13.13,0,0,1,0-.1.13.13,0,0,1,.09,0H84.8a.18.18,0,0,1,.1,0,.13.13,0,0,1,0,.1V13.6a.05.05,0,0,0,.06.06h.48A.13.13,0,0,1,85.58,13.7Z"/><path class="cls-2" d="M59.92,14.41l-1.33-.06a.12.12,0,0,0-.14.13,1.26,1.26,0,0,1-.37.95,1.47,1.47,0,0,1-1.95,0,1.26,1.26,0,0,1-.37-.95V11.74a1.3,1.3,0,0,1,.37-1,1.5,1.5,0,0,1,1.95,0,1.3,1.3,0,0,1,.37,1c0,.08,0,.12.11.12h0l1.33-.08c.09,0,.13,0,.13-.12a2.55,2.55,0,0,0-.37-1.38,2.36,2.36,0,0,0-1-.92A3.42,3.42,0,0,0,57.11,9a3.38,3.38,0,0,0-1.56.35,2.34,2.34,0,0,0-1,1,2.76,2.76,0,0,0-.37,1.44v2.63a2.71,2.71,0,0,0,.37,1.44,2.5,2.5,0,0,0,1,1,3.38,3.38,0,0,0,1.56.34,3.42,3.42,0,0,0,1.54-.33,2.45,2.45,0,0,0,1-.93,2.56,2.56,0,0,0,.37-1.39.1.1,0,0,0,0-.08A.14.14,0,0,0,59.92,14.41Z"/><path class="cls-2" d="M62.68,9.17a.11.11,0,0,0-.09,0H61.26a.13.13,0,0,0-.1,0,.1.1,0,0,0,0,.09v7.68a.14.14,0,0,0,.14.14h1.33a.11.11,0,0,0,.09,0,.13.13,0,0,0,0-.1V9.26A.1.1,0,0,0,62.68,9.17Z"/><path class="cls-2" d="M65.5,11.27a.11.11,0,0,0-.09,0H64.08a.13.13,0,0,0-.1,0,.11.11,0,0,0,0,.09v5.58a.14.14,0,0,0,.14.14h1.33a.11.11,0,0,0,.09,0,.13.13,0,0,0,0-.1V11.36A.11.11,0,0,0,65.5,11.27ZM65.41,9a.92.92,0,0,0-.65-.25.91.91,0,0,0-.65.25.88.88,0,0,0-.25.65.83.83,0,0,0,.26.64.87.87,0,0,0,.64.26.88.88,0,0,0,.64-.26.87.87,0,0,0,.26-.64A.92.92,0,0,0,65.41,9Z"/><path class="cls-2" d="M68.73,12.71a1,1,0,0,1,.62-.19,1.11,1.11,0,0,1,.65.2.85.85,0,0,1,.35.49l0,.18c0,.07.07.11.14.11h0l1.31-.19a.13.13,0,0,0,.11-.13v0a1.45,1.45,0,0,0-.09-.41A2.19,2.19,0,0,0,71,11.6a3.06,3.06,0,0,0-3.18,0,2.34,2.34,0,0,0-.94,1.22,4,4,0,0,0-.2,1.32,4.15,4.15,0,0,0,.2,1.34,2.48,2.48,0,0,0,1,1.25,2.71,2.71,0,0,0,1.57.45A2.91,2.91,0,0,0,71,16.74a2.17,2.17,0,0,0,.92-1.19,1.41,1.41,0,0,0,.07-.34.13.13,0,0,0-.11-.13l-1.31-.2c-.1,0-.15,0-.16.11s0,0,0,0,0,.06,0,.07a1,1,0,0,1-.37.52,1.11,1.11,0,0,1-.62.19,1,1,0,0,1-1-.73,3.28,3.28,0,0,1-.11-.93,2.83,2.83,0,0,1,.12-.93A1,1,0,0,1,68.73,12.71Z"/><path class="cls-2" d="M76.42,13.32a.08.08,0,0,1,0-.08l1.44-1.83a.16.16,0,0,0,0-.09c0-.05,0-.08-.12-.08H76.28a.25.25,0,0,0-.17.08l-1,1.22,1.73,1.58Z"/><path class="cls-2" d="M74.5,9.26a.13.13,0,0,0,0-.09.13.13,0,0,0-.1,0H73a.13.13,0,0,0-.1,0,.13.13,0,0,0,0,.09v1.31L74.5,12Z"/><path class="cls-2" d="M21.85,11.84A7.62,7.62,0,0,1,19,13.27h0l-1.22,1.85,1.43,8L17.1,25.22l-2.21-2.17,1.4-7.9-1-1.86a7.52,7.52,0,0,1-2.91-1.45,8.85,8.85,0,1,0,9.5,0Z"/><path class="cls-2" d="M22.54,5.94a5.46,5.46,0,0,1-3,4.86,5.4,5.4,0,0,1-4.87,0,5.5,5.5,0,0,1-2.4-2.37h0a5.48,5.48,0,0,1-.38-4,5.44,5.44,0,0,1,10.44,0A5.56,5.56,0,0,1,22.54,5.94Z"/><path class="cls-1" d="M23.25,29.52a11.91,11.91,0,0,1-12.86-20,7.65,7.65,0,0,1-.87-3.53c0-.17,0-.33,0-.5A15.8,15.8,0,0,0,24.4,33.33Z"/><path class="cls-1" d="M24.66,5.44c0,.17,0,.33,0,.5a7.53,7.53,0,0,1-.87,3.53,11.92,11.92,0,0,1,3.43,16.12L31,26.83A15.83,15.83,0,0,0,24.66,5.44Z"/><path class="cls-2" d="M26.49,34.54l-2.06-7.09a.83.83,0,0,1,1.09-1l7.26,2.69a.74.74,0,0,1,0,1.38L31,31.26a3.88,3.88,0,0,0-2,1.85l-1,2A.72.72,0,0,1,26.67,35Z"/><rect class="cls-1" x="24.73" y="24.52" width="0.38" height="1.12" rx="0.15" transform="translate(1.04 -1) rotate(2.34)"/><rect class="cls-1" x="23.45" y="25.02" width="0.38" height="1.12" rx="0.15" transform="translate(-11.17 24.31) rotate(-45.17)"/><rect class="cls-1" x="26.01" y="25.08" width="0.38" height="1.12" rx="0.15" transform="translate(28.65 -10.94) rotate(49.45)"/><rect class="cls-1" x="22.89" y="26.26" width="0.38" height="1.12" rx="0.15" transform="translate(49.46 3.23) rotate(88.89)"/><rect class="cls-1" x="23.38" y="27.51" width="0.38" height="1.12" rx="0.15" transform="translate(26.65 -8.45) rotate(44.83)"/></svg>