<svg width="15" height="16" viewBox="0 0 15 16" fill="none" xmlns="http://www.w3.org/2000/svg">
<path d="M9.33259 5.18726C8.95346 5.49485 8.51364 5.71777 8.04234 5.84122L7.491 6.68684L8.13804 10.356L7.17528 11.3027L6.17372 10.3086L6.80963 6.69868L6.33842 5.8489C5.85566 5.72741 5.40497 5.50164 5.01764 5.18726C4.28256 5.65728 3.71893 6.35465 3.41144 7.1746C3.10394 7.99454 3.06919 8.89275 3.31242 9.73426C3.55564 10.5758 4.0637 11.3151 4.76024 11.8412C5.45679 12.3673 6.30419 12.6517 7.17512 12.6517C8.04604 12.6517 8.89345 12.3673 9.58999 11.8412C10.2865 11.3151 10.7946 10.5758 11.0378 9.73426C11.281 8.89275 11.2463 7.99454 10.9388 7.1746C10.6313 6.35465 10.0677 5.65728 9.33259 5.18726Z" fill="#FF8257"/>
<path d="M9.64514 2.48918C9.64508 3.04657 9.45885 3.58776 9.11636 4.02583C8.77387 4.46391 8.29499 4.77343 7.75665 4.90469C7.21831 5.03594 6.65175 4.98132 6.14797 4.74958C5.64419 4.51785 5.23244 4.12245 4.97885 3.62691C4.80717 3.29231 4.71327 2.92285 4.70422 2.54641C4.69517 2.16996 4.77122 1.79636 4.92662 1.45381C5.08202 1.11126 5.31271 0.808701 5.60129 0.568968C5.88986 0.329236 6.22879 0.158594 6.59248 0.0699205C6.95616 -0.0187534 7.33512 -0.0231425 7.70074 0.0570845C8.06636 0.137311 8.40909 0.300058 8.70308 0.533043C8.99706 0.766028 9.23462 1.06316 9.39781 1.40203C9.561 1.74089 9.64557 2.11263 9.64514 2.48918Z" fill="#FF8257"/>
<path d="M11.439 15.5605L10.5068 12.324C10.4872 12.2562 10.4867 12.1842 10.5054 12.1162C10.5241 12.0481 10.5612 11.9866 10.6125 11.9386C10.6639 11.8905 10.7275 11.8577 10.7963 11.8439C10.8651 11.8301 10.9364 11.8358 11.0022 11.8603L14.3003 13.0896C14.3636 13.1131 14.4184 13.1553 14.4575 13.2107C14.4967 13.266 14.5183 13.332 14.5195 13.3999C14.5208 13.4678 14.5017 13.5345 14.4647 13.5913C14.4277 13.6481 14.3745 13.6924 14.3121 13.7183L13.4835 14.0613C13.0904 14.2247 12.7687 14.5247 12.5767 14.9066L12.1176 15.821C12.0892 15.8774 12.0451 15.9244 11.9907 15.9561C11.9362 15.9878 11.8738 16.0029 11.811 15.9995C11.7482 15.9961 11.6877 15.9744 11.637 15.937C11.5862 15.8996 11.5474 15.8482 11.5252 15.789L11.439 15.5605Z" fill="#FF8257"/>
<path d="M9.96913 13.2678C8.7622 13.9988 7.31961 14.2273 5.94787 13.9049C4.57614 13.5826 3.38338 12.7347 2.62305 11.5414C1.86272 10.3482 1.59474 8.9036 1.87606 7.51468C2.15737 6.12576 2.96581 4.90196 4.12959 4.10331C3.8688 3.6058 3.7329 3.05166 3.73373 2.48919C3.73373 2.41325 3.73607 2.33796 3.74073 2.26331C2.60839 2.88434 1.66335 3.80104 1.00506 4.91692C0.346764 6.03281 -0.000433082 7.30662 4.0542e-07 8.60431C4.0542e-07 12.5918 3.21133 15.8242 7.17495 15.8242C8.32975 15.8259 9.46776 15.546 10.4915 15.0083L9.96913 13.2678Z" fill="#012E58"/>
<path d="M10.6092 2.26331C10.614 2.33817 10.6165 2.41347 10.6165 2.48919C10.6173 3.05166 10.4814 3.6058 10.2206 4.10331C11.3726 4.89344 12.1772 6.10035 12.4669 7.47261C12.7565 8.84487 12.5088 10.2767 11.7754 11.4697L13.4863 12.0389C14.3889 10.3578 14.5929 8.3854 14.0537 6.55332C13.5144 4.72124 12.2759 3.17871 10.6092 2.26331Z" fill="#012E58"/>
<path d="M10.7467 10.9815L10.7324 10.9809C10.6889 10.9791 10.6522 11.0132 10.6504 11.0569L10.636 11.4105C10.6343 11.4543 10.6681 11.4912 10.7116 11.493L10.7259 11.4936C10.7694 11.4954 10.8061 11.4614 10.8079 11.4176L10.8223 11.064C10.824 11.0202 10.7902 10.9833 10.7467 10.9815Z" fill="#012E58"/>
<path d="M9.97162 11.2793L9.96153 11.2896C9.93083 11.3206 9.93097 11.3709 9.96186 11.4018L10.2113 11.6512C10.2421 11.6821 10.2921 11.682 10.3228 11.6509L10.3329 11.6407C10.3636 11.6096 10.3634 11.5594 10.3325 11.5285L10.0831 11.279C10.0522 11.2481 10.0023 11.2483 9.97162 11.2793Z" fill="#012E58"/>
<path d="M11.5061 11.3334L11.4968 11.3225C11.4685 11.2892 11.4187 11.2853 11.3856 11.3138L11.1184 11.5438C11.0854 11.5723 11.0815 11.6224 11.1098 11.6557L11.1191 11.6667C11.1474 11.7 11.1972 11.7038 11.2303 11.6754L11.4975 11.4453C11.5306 11.4168 11.5344 11.3667 11.5061 11.3334Z" fill="#012E58"/>
<path d="M10.1491 12.0389L10.1488 12.0245C10.148 11.9807 10.112 11.9459 10.0685 11.9467L9.71688 11.9536C9.67334 11.9544 9.63872 11.9906 9.63957 12.0345L9.63985 12.0488C9.64069 12.0927 9.67667 12.1275 9.72021 12.1266L10.0718 12.1198C10.1153 12.1189 10.15 12.0827 10.1491 12.0389Z" fill="#012E58"/>
<path d="M10.2983 12.4303L10.2881 12.4202C10.2572 12.3893 10.2073 12.3895 10.1766 12.4205L9.92867 12.6715C9.89797 12.7026 9.89812 12.7528 9.929 12.7837L9.93915 12.7939C9.97003 12.8247 10.02 12.8246 10.0507 12.7935L10.2986 12.5426C10.3293 12.5115 10.3291 12.4612 10.2983 12.4303Z" fill="#012E58"/>
</svg>
