<svg width="24" height="24" viewBox="0 0 24 24" fill="none" xmlns="http://www.w3.org/2000/svg">
<path d="M14 6.75H10C9.04 6.75 7.25 6.75 7.25 4C7.25 1.25 9.04 1.25 10 1.25H14C14.96 1.25 16.75 1.25 16.75 4C16.75 4.96 16.75 6.75 14 6.75ZM10 2.75C9.01 2.75 8.75 2.75 8.75 4C8.75 5.25 9.01 5.25 10 5.25H14C15.25 5.25 15.25 4.99 15.25 4C15.25 2.75 14.99 2.75 14 2.75H10Z" fill="black"/>
<path d="M15 22.7501H9C3.38 22.7501 2.25 20.1701 2.25 16.0001V10.0001C2.25 5.44005 3.9 3.49005 7.96 3.28005C8.37 3.26005 8.73 3.57005 8.75 3.99005C8.77 4.41005 8.45 4.75005 8.04 4.77005C5.2 4.93005 3.75 5.78005 3.75 10.0001V16.0001C3.75 19.7001 4.48 21.2501 9 21.2501H15C19.52 21.2501 20.25 19.7001 20.25 16.0001V10.0001C20.25 5.78005 18.8 4.93005 15.96 4.77005C15.55 4.75005 15.23 4.39005 15.25 3.98005C15.27 3.57005 15.63 3.25005 16.04 3.27005C20.1 3.49005 21.75 5.44005 21.75 9.99005V15.9901C21.75 20.1701 20.62 22.7501 15 22.7501Z" fill="black"/>
<path d="M16.75 13.5C16.75 16.1234 14.6234 18.25 12 18.25C9.37665 18.25 7.25 16.1234 7.25 13.5C7.25 10.8766 9.37665 8.75 12 8.75C14.6234 8.75 16.75 10.8766 16.75 13.5Z" stroke="black" stroke-width="1.5"/>
<path d="M13.2288 15.5C13.1822 15.5 13.1356 15.4885 13.0925 15.458L11.9806 14.7519C11.7044 14.5763 11.5 14.1908 11.5 13.8511V12.2863C11.5 12.1298 11.622 12 11.769 12C11.9161 12 12.038 12.1298 12.038 12.2863V13.8511C12.038 13.9885 12.1456 14.1908 12.2568 14.2595L13.3687 14.9656C13.4979 15.0458 13.5373 15.2214 13.462 15.3588C13.4082 15.4504 13.3185 15.5 13.2288 15.5Z" fill="black"/>
</svg>
