<svg id="Layer_2" data-name="Layer 2" xmlns="http://www.w3.org/2000/svg" viewBox="0 0 1033.91 1046"><defs><style>.cls-1{fill:#151616;}.cls-1,.cls-17{opacity:0.1;}.cls-16,.cls-17,.cls-2{fill:#007cff;}.cls-3{opacity:0.4;}.cls-4{fill:#fff;}.cls-5,.cls-6{fill:#d3d3d3;}.cls-5{opacity:0.7;}.cls-6,.cls-9{opacity:0.2;}.cls-7{fill:#263238;}.cls-8{fill:#ffb570;}.cls-10{fill:#dee6f1;}.cls-11{fill:#ff8b7b;}.cls-12{fill:#272a2b;}.cls-13{fill:#484c5e;}.cls-14,.cls-16{opacity:0.3;}.cls-15{fill:#fafafa;}</style></defs><ellipse id="_Path_" data-name="&lt;Path&gt;" class="cls-1" cx="516.95" cy="1018.18" rx="516.95" ry="27.82"/><path class="cls-2" d="M470.81,885.8H82.63a13.1,13.1,0,0,1-13.09-12.66L47.75,232.91a13.1,13.1,0,0,1,13.09-13.54H449A13.1,13.1,0,0,1,462.1,232l21.8,640.23A13.11,13.11,0,0,1,470.81,885.8Z" transform="translate(-23.05 -17)"/><path class="cls-3" d="M470.81,885.8H82.63a13.1,13.1,0,0,1-13.09-12.66L47.75,232.91a13.1,13.1,0,0,1,13.09-13.54H449A13.1,13.1,0,0,1,462.1,232l21.8,640.23A13.11,13.11,0,0,1,470.81,885.8Z" transform="translate(-23.05 -17)"/><path class="cls-4" d="M491.49,865.12H103.31a13.1,13.1,0,0,1-13.09-12.66L68.43,212.23a13.1,13.1,0,0,1,13.09-13.54H469.69a13.1,13.1,0,0,1,13.09,12.65l21.8,640.23A13.11,13.11,0,0,1,491.49,865.12Z" transform="translate(-23.05 -17)"/><ellipse class="cls-2" cx="281.67" cy="389.83" rx="114.6" ry="118.56" transform="translate(-216.83 300.38) rotate(-45.49)"/><path class="cls-4" d="M377.87,389.82a93.4,93.4,0,0,1-10.07,45.82A92.22,92.22,0,0,1,284.94,486c-36.57,0-69-20.39-86.29-50.38a97.94,97.94,0,0,1-13.19-45.82c-1.81-53.14,39.79-96.2,92.93-96.2S376.06,336.68,377.87,389.82Z" transform="translate(-23.05 -17)"/><path class="cls-5" d="M367.8,435.64A92.22,92.22,0,0,1,284.94,486c-36.57,0-69-20.39-86.29-50.38A147.53,147.53,0,0,1,282.35,410,155.94,155.94,0,0,1,367.8,435.64Z" transform="translate(-23.05 -17)"/><ellipse class="cls-5" cx="280.55" cy="356.91" rx="42.13" ry="43.59" transform="translate(-193.69 289.74) rotate(-45.49)"/><path class="cls-6" d="M416.72,623.78H162.2a4.92,4.92,0,0,1-4.91-4.75l-1.45-42.7a4.91,4.91,0,0,1,4.91-5.08H415.27a4.92,4.92,0,0,1,4.91,4.75l1.45,42.7A4.91,4.91,0,0,1,416.72,623.78Z" transform="translate(-23.05 -17)"/><path class="cls-6" d="M419.91,717.67H165.4a4.91,4.91,0,0,1-4.91-4.75L159,670.22a4.91,4.91,0,0,1,4.91-5.08H418.46a4.91,4.91,0,0,1,4.91,4.74l1.45,42.71A4.91,4.91,0,0,1,419.91,717.67Z" transform="translate(-23.05 -17)"/><path class="cls-4" d="M376.28,791.22H214a4.91,4.91,0,0,1-4.91-4.75l-.83-24.36a4.91,4.91,0,0,1,4.91-5.08H375.45a4.91,4.91,0,0,1,4.91,4.74l.83,24.37A4.91,4.91,0,0,1,376.28,791.22Z" transform="translate(-23.05 -17)"/><path class="cls-7" d="M298.34,597.51a9.22,9.22,0,0,1-9.28,9.61,10,10,0,0,1-9.93-9.61,9.22,9.22,0,0,1,9.28-9.6A10,10,0,0,1,298.34,597.51Z" transform="translate(-23.05 -17)"/><path class="cls-7" d="M257,597.51a9.22,9.22,0,0,1-9.28,9.61,10,10,0,0,1-9.93-9.61,9.22,9.22,0,0,1,9.28-9.6A10,10,0,0,1,257,597.51Z" transform="translate(-23.05 -17)"/><path class="cls-7" d="M215.62,597.51a9.22,9.22,0,0,1-9.28,9.61,10,10,0,0,1-9.93-9.61,9.22,9.22,0,0,1,9.28-9.6A10,10,0,0,1,215.62,597.51Z" transform="translate(-23.05 -17)"/><path class="cls-7" d="M339.7,597.51a9.22,9.22,0,0,1-9.28,9.61,10,10,0,0,1-9.93-9.61,9.22,9.22,0,0,1,9.28-9.6A10,10,0,0,1,339.7,597.51Z" transform="translate(-23.05 -17)"/><path class="cls-7" d="M381.06,597.51a9.22,9.22,0,0,1-9.28,9.61,10,10,0,0,1-9.93-9.61,9.22,9.22,0,0,1,9.28-9.6A10,10,0,0,1,381.06,597.51Z" transform="translate(-23.05 -17)"/><path class="cls-8" d="M729.34,340.77c3.89,6.23,7.11,12.21,10.45,18.42s6.33,12.46,9.27,18.84A270.8,270.8,0,0,1,764,418.1c.51,1.73.91,3.56,1.35,5.35l.63,2.7.32,1.35.38,2.23a39.15,39.15,0,0,1-.91,15c-2.09,8.5-5.47,15.28-9.08,21.76a173.93,173.93,0,0,1-25.93,34.06l-12.29-9.3c6.06-11.5,12.05-23.54,16.45-35.13,2.13-5.76,3.93-11.62,4.45-16.43a12.82,12.82,0,0,0-.24-5.16L737.93,431c-.48-1.46-.9-2.92-1.48-4.39a325,325,0,0,0-15.38-35.27c-5.74-11.61-12.1-23.44-18.36-34.48Z" transform="translate(-23.05 -17)"/><path class="cls-8" d="M721.54,487.1l-13.4,7.11,15.4,18s9.62-6.51,10.05-16.44Z" transform="translate(-23.05 -17)"/><polygon class="cls-8" points="667.06 488.33 683.57 501.43 700.49 495.25 685.09 477.21 667.06 488.33"/><path class="cls-8" d="M627.18,305.33l.12-19.12,25.33,3.06s-.43,16.45-14.58,21.28Z" transform="translate(-23.05 -17)"/><polygon class="cls-8" points="611.41 255.43 629.25 260.56 629.59 272.27 604.26 269.21 611.41 255.43"/><path class="cls-9" d="M652.3,277.56l-17.83-5.14L631,279.08a28.38,28.38,0,0,0,16.45,24.74,27.84,27.84,0,0,0,5.17-14.56Z" transform="translate(-23.05 -17)"/><path class="cls-8" d="M678.8,274.82c-2.95,15-4.72,35.83,5.78,45.85,0,0-4.1,15.23-32,15.23-30.69,0-14.76-13.37-14.76-13.37,12.75-4,12.64-18.49,9.72-30.15Z" transform="translate(-23.05 -17)"/><path class="cls-10" d="M690.33,330.71c2.73-3.87,2.62-16.1-.3-18.25-4.7-3.49-24.85-4.29-52,2,2.93,11.84-3.33,18-3.33,18Z" transform="translate(-23.05 -17)"/><polygon class="cls-11" points="635.71 1008.89 615.19 1008.89 613.14 961.36 633.67 961.36 635.71 1008.89"/><polygon class="cls-11" points="786.37 999.39 766.31 1003.74 746.16 959.46 766.23 955.12 786.37 999.39"/><path class="cls-12" d="M787.42,1018.72l22.54-4.88a1.8,1.8,0,0,1,2,1l7.82,17a3,3,0,0,1-2.17,4.2c-7.89,1.57-11.82,1.93-21.73,4.08-6.09,1.32-19.86,4.67-28.28,6.5-8.24,1.78-11.32-6.27-8-7.77,14.73-6.73,20.88-12.65,24.86-18.17A5,5,0,0,1,787.42,1018.72Z" transform="translate(-23.05 -17)"/><path class="cls-12" d="M638.37,1023.52h22.41a1.79,1.79,0,0,1,1.75,1.4l4.06,18.24a3,3,0,0,1-3,3.66c-8.08-.14-19.77-.62-29.93-.62-11.88,0-22.15.65-36.08.65-8.43,0-10.77-8.52-7.24-9.29,16.06-3.51,29.17-3.89,43-12.44A9.53,9.53,0,0,1,638.37,1023.52Z" transform="translate(-23.05 -17)"/><path class="cls-4" d="M721.33,325.31c19.24,4.41,35.1,53.52,35.1,53.52L717.8,408.27s-14.18-13.36-20.49-37.93C690.7,344.6,701.66,320.8,721.33,325.31Z" transform="translate(-23.05 -17)"/><path class="cls-8" d="M620.17,383.92c-4.8,5.18-9.58,9.79-14.54,14.53q-3.69,3.54-7.55,6.93l-3.87,3.4-1,.84c-.47.41-1.05.89-1.66,1.36a24.43,24.43,0,0,1-5.64,3.33,18.59,18.59,0,0,1-7.1,1.47,17.51,17.51,0,0,1-6.13-1.09,17.09,17.09,0,0,1-5.84-3.71,17.64,17.64,0,0,1-4.57-7.56,20.66,20.66,0,0,1-.83-4.34,28.21,28.21,0,0,1,0-5.22c.14-1.4.33-2.61.54-3.75a74.58,74.58,0,0,1,3.39-11.77A109.36,109.36,0,0,1,570,367.8c1.85-3.72,3.64-6.42,5.42-9.53a237.84,237.84,0,0,1,24.67-33.43A224,224,0,0,1,630,296.48l10.74,11c-7.54,10.1-15,20.92-21.82,31.58a342.79,342.79,0,0,0-18.67,32.82c-1.26,2.75-2.81,5.76-3.69,8.06a81.11,81.11,0,0,0-2.73,7.87,55.8,55.8,0,0,0-1.66,7.37,11.26,11.26,0,0,0-.1,1.16c0,.22.05.35,0-.27a9.5,9.5,0,0,0-.38-1.92,12.72,12.72,0,0,0-3.37-5.42,13.94,13.94,0,0,0-9.72-3.94,12.15,12.15,0,0,0-4.7.9,10,10,0,0,0-1.45.72l1.12-1,3.5-3.22,7-6.53c4.62-4.35,9.26-9,13.65-13.3Z" transform="translate(-23.05 -17)"/><path class="cls-9" d="M704.85,361.42c10.45,10.34,13.85,29.17,14.67,45.55l-1.71,1.31s-14.19-13.38-20.51-37.94c-.39-1.54-.72-3.08-1-4.59Z" transform="translate(-23.05 -17)"/><path class="cls-4" d="M599.77,345.89c-4.2,22.17-6.83,67.71,5.36,157.89H714.91c.76-16.85-9.83-99.07,6.42-178.47a285.31,285.31,0,0,0-36.75-4.64c-14-.68-34.33-1.13-46.67,0-5.14.47-10.2,1.21-14.7,2A29,29,0,0,0,599.77,345.89Z" transform="translate(-23.05 -17)"/><path class="cls-9" d="M616.57,378.66l-19.84-4.75c-.62,12-.67,26.91.22,45.32C606.09,408.84,617.74,392.63,616.57,378.66Z" transform="translate(-23.05 -17)"/><path class="cls-8" d="M688.55,252.86c-5.27,19.67-7.36,31.46-19.5,39.64-18.26,12.31-41-1.82-41.71-22.67-.65-18.78,8.09-47.8,29.2-51.77C677.35,214.16,693.83,233.18,688.55,252.86Z" transform="translate(-23.05 -17)"/><path class="cls-7" d="M642.49,253.61c-1-2.64-5.53-23-1.26-28.25s52.85-1.48,60,5.59c11.92,11.73,3.65,22.19-9.4,35.7-9.81,10.15-10.19,21.6-15.14,23.28-8.67,2.95-22.12.18-24.82-9.08S642.49,253.61,642.49,253.61Z" transform="translate(-23.05 -17)"/><path class="cls-7" d="M695.38,207.82c-17.17-7.31-49.37.77-66.75-3.42-.62,9,4.81,23.44,22.2,27.32,0,0,24.68,4.82,43.77,4S710,214,695.38,207.82Z" transform="translate(-23.05 -17)"/><path class="cls-7" d="M698.07,231.57s10.62,1.2,18.16-3.49C719.45,235.84,701.8,238,698.07,231.57Z" transform="translate(-23.05 -17)"/><path class="cls-8" d="M651.84,254.42A23,23,0,0,1,646.08,268c-4.48,4.93-9.15,1.86-9.94-4.14-.71-5.4.75-14.48,6.22-17.2S652.21,248.33,651.84,254.42Z" transform="translate(-23.05 -17)"/><path class="cls-13" d="M644.07,503.78s23.3,156.86,36.08,215.63c12.63,58,82.44,256.78,96.54,295.33a8,8,0,0,0,9.17,5l21.35-4.63a8,8,0,0,0,5.91-10.22C800.74,966.38,752,804.19,741.73,725.24c-9-69.11-26.82-221.46-26.82-221.46Z" transform="translate(-23.05 -17)"/><path class="cls-14" d="M658.79,559.67c26.94,5.28,24.09,105.73,20.85,157.39-7.77-36.52-19.14-106.79-26.91-156.66A9.14,9.14,0,0,1,658.79,559.67Z" transform="translate(-23.05 -17)"/><path class="cls-13" d="M605.13,503.78s-2.83,153.47-.6,216.06c2.15,60.14,21.71,269.65,24.69,301.3a4.43,4.43,0,0,0,4.42,4h26.3a4.43,4.43,0,0,0,4.45-4.41c.18-32.65,1.38-237.15,2.8-295.93,1.69-69.71,10.1-221,10.1-221Z" transform="translate(-23.05 -17)"/><path class="cls-4" d="M642.79,352.62c9.84,26.53-48,57.77-48,57.77l-25-32.19S586.48,345,607,330C632.29,311.47,635.3,332.43,642.79,352.62Z" transform="translate(-23.05 -17)"/><ellipse class="cls-2" cx="846.26" cy="67.12" rx="105.31" ry="67.12"/><ellipse class="cls-2" cx="846.26" cy="67.12" rx="105.31" ry="67.12"/><path class="cls-15" d="M918.16,58.72a6,6,0,0,0-7.87-2L860.61,82.08,860,81.5a20.73,20.73,0,0,0-24.55-3.57,21.09,21.09,0,0,0-9,27.23,20.84,20.84,0,0,0,39.44-12.11l-.13-.82,16.83-8.6a3.71,3.71,0,0,1,5.22,2.17l.79,2.48a1.36,1.36,0,0,0,1.4,1,6.69,6.69,0,0,1,5.53,1.87,1.31,1.31,0,0,0,1.49.35l1-.5a1.3,1.3,0,0,0,.59-1.41A6.75,6.75,0,0,1,910,83.75a1.28,1.28,0,0,0,1.48.35l1-.51a1.29,1.29,0,0,0,.59-1.41,6.69,6.69,0,0,1,1.7-5.57,1.35,1.35,0,0,0,0-1.7l-1.55-2.1a3.71,3.71,0,0,1,1.3-5.5l1.27-.65a5.7,5.7,0,0,0,2.33-7.94ZM859.3,100.81a14.55,14.55,0,0,1-7.29,8.55,15.17,15.17,0,0,1-2.8,1.09,14.66,14.66,0,1,1,10.09-9.64Z" transform="translate(-23.05 -17)"/><ellipse class="cls-16" cx="760.53" cy="151.53" rx="34.61" ry="22.06"/><ellipse class="cls-17" cx="705.47" cy="173.59" rx="14.21" ry="9.06"/><path class="cls-2" d="M296.32,713.55a3.92,3.92,0,0,1-2.23-3.54V690.43a3.93,3.93,0,0,1,5-3.78,12.19,12.19,0,0,0,9.58-1.47,11,11,0,0,0,5.23-7,11.29,11.29,0,0,0-2-8.55,12.57,12.57,0,0,0-8.08-5.35c-6.31-1-13.36,3.55-15.4,10a3.93,3.93,0,0,1-7.49-2.39c3.21-10.06,14-16.94,24.13-15.34a20.34,20.34,0,0,1,13.31,8.65,19.13,19.13,0,0,1,3.22,14.62,18.8,18.8,0,0,1-8.84,12.1,20.52,20.52,0,0,1-10.8,3V710a3.92,3.92,0,0,1-5.63,3.54Z" transform="translate(-23.05 -17)"/><path class="cls-2" d="M301.73,721.78a3.21,3.21,0,1,1-3.29-3.13A3.2,3.2,0,0,1,301.73,721.78Z" transform="translate(-23.05 -17)"/></svg>