<svg width="125" height="44" viewBox="0 0 125 44" fill="none" xmlns="http://www.w3.org/2000/svg">
<path d="M42.7097 36.3661C42.6942 36.3508 42.6818 36.3323 42.6736 36.3119C42.6653 36.2915 42.6612 36.2696 42.6615 36.2476V26.8185C42.6615 26.774 42.6789 26.7314 42.7098 26.7C42.7408 26.6686 42.7827 26.6509 42.8265 26.6509H44.4334C44.4771 26.6509 44.519 26.6686 44.55 26.7C44.5809 26.7314 44.5983 26.774 44.5983 26.8185V30.7243C44.5983 30.7518 44.6076 30.7682 44.6253 30.7725C44.6355 30.7746 44.646 30.7739 44.6558 30.7702C44.6655 30.7666 44.674 30.7602 44.6803 30.7518L47.8518 26.7489C47.8765 26.7178 47.9079 26.6928 47.9435 26.6759C47.9791 26.6589 48.018 26.6504 48.0573 26.6509H49.8697C49.9425 26.6509 49.9881 26.6715 50.0068 26.7136C50.0152 26.7384 50.0172 26.765 50.0125 26.7908C50.0077 26.8166 49.9964 26.8406 49.9797 26.8606L46.9181 30.8352C46.8911 30.873 46.886 30.9057 46.9046 30.9332L50.1438 36.22C50.1557 36.2516 50.1651 36.2841 50.1717 36.3172C50.1717 36.3825 50.126 36.4151 50.0338 36.4151H48.2197C48.1804 36.4183 48.141 36.4093 48.1068 36.3894C48.0725 36.3695 48.045 36.3395 48.0277 36.3034L45.5852 32.2858C45.5818 32.2776 45.576 32.2706 45.5686 32.2657C45.5612 32.2608 45.5526 32.2583 45.5438 32.2583C45.5227 32.2602 45.5031 32.27 45.4888 32.2858L44.6236 33.3884C44.6088 33.4148 44.5996 33.4441 44.5966 33.4743V36.2501C44.5966 36.2946 44.5792 36.3372 44.5483 36.3686C44.5173 36.4001 44.4754 36.4177 44.4317 36.4177H42.8248C42.8031 36.4175 42.7818 36.4128 42.762 36.404C42.7423 36.3951 42.7245 36.3822 42.7097 36.3661Z" fill="#012E58"/>
<path d="M57.3342 36.276L56.9224 34.9087C56.9038 34.8717 56.8809 34.8528 56.8539 34.8528H53.4768C53.4498 34.8528 53.4261 34.8717 53.4083 34.9087L53.01 36.276C53.0022 36.3174 52.9797 36.3544 52.9468 36.3801C52.9139 36.4058 52.8729 36.4182 52.8315 36.4152H51.0885C51.0656 36.4169 51.0426 36.4135 51.0212 36.405C50.9999 36.3965 50.9807 36.3832 50.965 36.3662C50.9507 36.345 50.9419 36.3205 50.9395 36.2949C50.9371 36.2694 50.9413 36.2436 50.9515 36.2201L53.9115 26.7902C53.9193 26.7488 53.9418 26.7117 53.9747 26.6861C54.0076 26.6604 54.0486 26.6479 54.09 26.651H56.25C56.2914 26.6479 56.3324 26.6604 56.3653 26.6861C56.3982 26.7117 56.4207 26.7488 56.4285 26.7902L59.3936 36.2201C59.4031 36.242 59.4078 36.2658 59.4071 36.2897C59.4071 36.3757 59.3564 36.4152 59.2558 36.4152H57.5102C57.4692 36.4176 57.4288 36.4048 57.3964 36.3792C57.3641 36.3536 57.342 36.3169 57.3342 36.276ZM53.9581 33.3326H56.3743C56.4293 33.3326 56.4471 33.3042 56.4293 33.2467L55.1937 29.1045C55.1844 29.0675 55.1708 29.0512 55.1522 29.0555C55.1336 29.0598 55.1201 29.0761 55.1116 29.1045L53.9031 33.2467C53.8929 33.3042 53.9115 33.3326 53.9581 33.3326Z" fill="#012E58"/>
<path d="M65.6944 36.2896L63.9783 32.4224C63.9714 32.4056 63.9596 32.3912 63.9445 32.3813C63.9294 32.3713 63.9118 32.3662 63.8938 32.3666H62.6192C62.61 32.3653 62.6005 32.3662 62.5916 32.3693C62.5827 32.3723 62.5747 32.3774 62.568 32.3841C62.5614 32.3909 62.5564 32.3991 62.5534 32.4081C62.5504 32.4171 62.5495 32.4267 62.5507 32.4362V36.2441C62.5507 36.2665 62.5463 36.2886 62.5378 36.3092C62.5292 36.3298 62.5167 36.3485 62.501 36.3641C62.4852 36.3797 62.4665 36.392 62.446 36.4002C62.4255 36.4083 62.4036 36.4122 62.3816 36.4117H60.7747C60.7309 36.4117 60.689 36.394 60.6581 36.3626C60.6271 36.3311 60.6098 36.2885 60.6098 36.2441V26.8185C60.6098 26.774 60.6271 26.7314 60.6581 26.7C60.689 26.6685 60.7309 26.6509 60.7747 26.6509H64.7006C65.2371 26.6393 65.7679 26.764 66.2449 27.0135C66.6802 27.2471 67.0382 27.6058 67.2742 28.0448C67.5236 28.5203 67.6488 29.0529 67.6379 29.5917C67.6379 30.2219 67.4825 30.7636 67.1719 31.2167C66.853 31.673 66.3944 32.009 65.8677 32.1724C65.8578 32.1746 65.8485 32.1792 65.8407 32.1857C65.8328 32.1923 65.8266 32.2007 65.8226 32.2102C65.8185 32.2196 65.8168 32.23 65.8174 32.2403C65.8181 32.2506 65.8211 32.2606 65.8263 32.2695L67.6928 36.2174C67.7082 36.2437 67.7178 36.273 67.7207 36.3034C67.7207 36.3781 67.67 36.4151 67.5694 36.4151H65.883C65.8426 36.4168 65.8027 36.4056 65.7688 36.3831C65.735 36.3606 65.709 36.3279 65.6944 36.2896ZM62.5507 28.4083V30.7939C62.5495 30.8034 62.5504 30.813 62.5534 30.822C62.5564 30.831 62.5614 30.8392 62.568 30.846C62.5747 30.8527 62.5827 30.8578 62.5916 30.8608C62.6005 30.8639 62.61 30.8648 62.6192 30.8635H64.4173C64.7638 30.878 65.1019 30.7525 65.3577 30.5146C65.4783 30.3985 65.5731 30.2575 65.6358 30.1012C65.6985 29.9448 65.7277 29.7767 65.7214 29.608C65.7272 29.4383 65.6978 29.2693 65.6352 29.1119C65.5725 28.9546 65.478 28.8123 65.3577 28.6945C65.232 28.5748 65.0841 28.4817 64.9227 28.4206C64.7612 28.3596 64.5894 28.3317 64.4173 28.3387H62.6192C62.61 28.3374 62.6005 28.3383 62.5916 28.3414C62.5827 28.3444 62.5747 28.3495 62.568 28.3563C62.5614 28.363 62.5564 28.3712 62.5534 28.3802C62.5504 28.3893 62.5495 28.3989 62.5507 28.4083Z" fill="#012E58"/>
<path d="M75.4127 26.6509H77.0196C77.0416 26.6504 77.0635 26.6543 77.084 26.6624C77.1045 26.6706 77.1232 26.6829 77.1389 26.6985C77.1547 26.7141 77.1672 26.7328 77.1758 26.7534C77.1843 26.774 77.1887 26.7961 77.1887 26.8185V36.2476C77.1887 36.2699 77.1843 36.2921 77.1758 36.3127C77.1672 36.3333 77.1547 36.352 77.1389 36.3676C77.1232 36.3832 77.1045 36.3955 77.084 36.4037C77.0635 36.4118 77.0416 36.4157 77.0196 36.4152H75.4127C75.3689 36.4152 75.327 36.3975 75.2961 36.3661C75.2651 36.3346 75.2478 36.292 75.2478 36.2476V30.0962C75.2478 30.0592 75.2385 30.0403 75.2207 30.0403C75.2029 30.0403 75.1835 30.0541 75.1657 30.0824L73.7102 32.3984C73.6913 32.4331 73.6635 32.4619 73.6296 32.4816C73.5958 32.5013 73.5572 32.5112 73.5182 32.5102H72.7089C72.6698 32.5111 72.6311 32.5013 72.5972 32.4816C72.5632 32.4619 72.5351 32.4331 72.516 32.3984L71.0614 30.0833C71.0428 30.0549 71.025 30.0437 71.0064 30.048C70.9878 30.0523 70.9785 30.0738 70.9785 30.1108V36.2484C70.9788 36.2704 70.9748 36.2922 70.9667 36.3126C70.9585 36.333 70.9464 36.3515 70.9311 36.367C70.916 36.3829 70.8978 36.3954 70.8778 36.4038C70.8577 36.4122 70.8361 36.4164 70.8144 36.416H69.2075C69.1858 36.4165 69.1642 36.4124 69.1441 36.404C69.124 36.3956 69.1059 36.383 69.0908 36.367C69.0752 36.3517 69.0629 36.3332 69.0546 36.3128C69.0463 36.2924 69.0422 36.2705 69.0426 36.2484V26.8185C69.0422 26.7964 69.0463 26.7745 69.0546 26.7541C69.0629 26.7337 69.0752 26.7153 69.0908 26.6999C69.1059 26.684 69.124 26.6714 69.1441 26.6629C69.1642 26.6545 69.1858 26.6504 69.2075 26.6509H70.8144C70.8534 26.6501 70.8918 26.6601 70.9257 26.6797C70.9595 26.6994 70.9874 26.7281 71.0064 26.7627L73.0658 30.0128C73.0928 30.0687 73.1207 30.0687 73.1503 30.0128L75.2232 26.7627C75.242 26.7285 75.2696 26.7001 75.3029 26.6804C75.3362 26.6608 75.3741 26.6506 75.4127 26.6509Z" fill="#012E58"/>
<path d="M84.7886 36.276L84.3767 34.9087C84.3581 34.8717 84.3353 34.8528 84.3082 34.8528H80.9312C80.9033 34.8528 80.8804 34.8717 80.8627 34.9087L80.4643 36.276C80.4565 36.3174 80.4341 36.3544 80.4012 36.3801C80.3683 36.4058 80.3272 36.4182 80.2859 36.4152H78.5428C78.5199 36.4169 78.497 36.4135 78.4756 36.405C78.4542 36.3965 78.435 36.3832 78.4193 36.3662C78.405 36.3451 78.3962 36.3206 78.3936 36.295C78.3911 36.2695 78.395 36.2437 78.405 36.2201L81.3701 26.7902C81.3779 26.7488 81.4004 26.7117 81.4333 26.6861C81.4662 26.6604 81.5072 26.6479 81.5486 26.651H83.7043C83.7457 26.6479 83.7867 26.6604 83.8196 26.6861C83.8525 26.7117 83.875 26.7488 83.8828 26.7902L86.8471 36.2201C86.8573 36.2418 86.8623 36.2657 86.8615 36.2897C86.8615 36.3757 86.8107 36.4152 86.7101 36.4152H84.967C84.9257 36.4182 84.8846 36.4058 84.8517 36.3801C84.8188 36.3544 84.7963 36.3174 84.7886 36.276ZM81.4115 33.3326H83.8278C83.8828 33.3326 83.9005 33.3042 83.8828 33.2467L82.6472 29.1045C82.6379 29.0675 82.6243 29.0512 82.6057 29.0555C82.5871 29.0598 82.5736 29.0761 82.5643 29.1045L81.36 33.2484C81.3473 33.3042 81.3659 33.3326 81.4115 33.3326Z" fill="#012E58"/>
<path d="M89.2769 36.1015C88.7555 35.8354 88.3214 35.4209 88.0277 34.9086C87.7278 34.3686 87.5762 33.7566 87.5888 33.1366V29.9148C87.5763 29.2951 87.7279 28.6834 88.0277 28.1436C88.3206 27.6323 88.755 27.2199 89.2769 26.9577C89.8623 26.6686 90.507 26.5252 91.1578 26.5392C91.7998 26.5252 92.4364 26.6613 93.0184 26.9371C93.5334 27.183 93.9672 27.5752 94.2676 28.0663C94.5713 28.5772 94.7261 29.1651 94.7141 29.7618C94.7141 29.8478 94.6591 29.8968 94.545 29.9148L92.9381 30.0128H92.9102C92.8188 30.0128 92.7731 29.9612 92.7731 29.859C92.7731 29.3668 92.6246 28.9718 92.3275 28.6739C92.0303 28.376 91.639 28.227 91.1536 28.227C90.6597 28.227 90.265 28.376 89.9695 28.6739C89.6741 28.9718 89.5252 29.3668 89.523 29.859V33.2208C89.523 33.7044 89.6718 34.0948 89.9695 34.3922C90.2672 34.6895 90.6619 34.8385 91.1536 34.839C91.6385 34.839 92.0298 34.6901 92.3275 34.3922C92.6252 34.0942 92.7737 33.7038 92.7731 33.2208C92.7731 33.1186 92.8281 33.067 92.9423 33.067L94.5492 33.1366C94.5918 33.1358 94.6333 33.1508 94.6659 33.1787C94.6806 33.1904 94.6926 33.2052 94.7009 33.2222C94.7093 33.2391 94.7138 33.2577 94.7141 33.2767C94.7255 33.8752 94.5708 34.4649 94.2676 34.9783C93.968 35.4735 93.5343 35.8707 93.0184 36.1221C92.4376 36.4022 91.8005 36.5408 91.1578 36.5268C90.5062 36.5412 89.8609 36.3952 89.2769 36.1015Z" fill="#012E58"/>
<path d="M101.281 26.6999C101.296 26.6841 101.315 26.6716 101.335 26.6631C101.355 26.6547 101.376 26.6506 101.398 26.6509H103.005C103.049 26.6509 103.091 26.6686 103.122 26.7C103.152 26.7314 103.17 26.7741 103.17 26.8185V36.2476C103.17 36.292 103.152 36.3346 103.122 36.3661C103.091 36.3975 103.049 36.4152 103.005 36.4152H101.398C101.376 36.4157 101.354 36.4118 101.334 36.4037C101.313 36.3955 101.294 36.3832 101.279 36.3676C101.263 36.352 101.25 36.3333 101.242 36.3127C101.233 36.2921 101.229 36.2699 101.229 36.2476V32.3984C101.23 32.389 101.229 32.3794 101.226 32.3704C101.223 32.3613 101.218 32.3531 101.212 32.3464C101.205 32.3397 101.197 32.3346 101.188 32.3315C101.179 32.3285 101.17 32.3275 101.16 32.3288H98.131C98.1217 32.3275 98.1122 32.3285 98.1033 32.3315C98.0944 32.3346 98.0864 32.3397 98.0797 32.3464C98.0731 32.3531 98.0681 32.3613 98.0651 32.3704C98.0621 32.3794 98.0612 32.389 98.0625 32.3984V36.2484C98.0625 36.2708 98.0581 36.293 98.0495 36.3136C98.041 36.3342 98.0284 36.3529 98.0127 36.3685C97.9969 36.3841 97.9782 36.3963 97.9577 36.4045C97.9372 36.4127 97.9153 36.4166 97.8933 36.416H96.2864C96.2644 36.4166 96.2425 36.4127 96.222 36.4045C96.2015 36.3963 96.1828 36.3841 96.1671 36.3685C96.1513 36.3529 96.1388 36.3342 96.1302 36.3136C96.1217 36.293 96.1173 36.2708 96.1173 36.2484V26.8185C96.1173 26.7961 96.1217 26.774 96.1302 26.7534C96.1388 26.7328 96.1513 26.7141 96.1671 26.6985C96.1828 26.6829 96.2015 26.6706 96.222 26.6624C96.2425 26.6543 96.2644 26.6504 96.2864 26.6509H97.8933C97.9153 26.6504 97.9372 26.6543 97.9577 26.6624C97.9782 26.6706 97.9969 26.6829 98.0127 26.6985C98.0284 26.7141 98.041 26.7328 98.0495 26.7534C98.0581 26.774 98.0625 26.7961 98.0625 26.8185V30.5705C98.0612 30.58 98.0621 30.5896 98.0651 30.5986C98.0681 30.6076 98.0731 30.6159 98.0797 30.6226C98.0864 30.6293 98.0944 30.6344 98.1033 30.6375C98.1122 30.6405 98.1217 30.6414 98.131 30.6402H101.165C101.174 30.6414 101.183 30.6405 101.192 30.6375C101.201 30.6344 101.209 30.6293 101.216 30.6226C101.222 30.6159 101.227 30.6076 101.23 30.5986C101.233 30.5896 101.234 30.58 101.233 30.5705V26.8185C101.233 26.7964 101.237 26.7745 101.245 26.7541C101.253 26.7337 101.266 26.7153 101.281 26.6999Z" fill="#012E58"/>
<path d="M110.719 36.276L110.307 34.9087C110.288 34.8717 110.266 34.8528 110.239 34.8528H106.862C106.834 34.8528 106.811 34.8717 106.793 34.9087L106.394 36.276C106.386 36.3174 106.364 36.3544 106.331 36.3801C106.298 36.4058 106.257 36.4182 106.215 36.4152H104.472C104.449 36.4169 104.426 36.4134 104.405 36.4049C104.383 36.3964 104.364 36.3832 104.348 36.3662C104.334 36.345 104.325 36.3204 104.323 36.2949C104.32 36.2694 104.324 36.2437 104.334 36.2201L107.3 26.7902C107.307 26.7488 107.33 26.7117 107.363 26.6861C107.396 26.6604 107.437 26.6479 107.478 26.651H109.633C109.674 26.6479 109.715 26.6604 109.748 26.6861C109.781 26.7117 109.804 26.7488 109.811 26.7902L112.777 36.2201C112.787 36.2418 112.792 36.2657 112.791 36.2897C112.791 36.3757 112.74 36.4152 112.64 36.4152H110.897C110.855 36.418 110.814 36.4054 110.782 36.3798C110.749 36.3541 110.727 36.3172 110.719 36.276ZM107.342 33.3326H109.757C109.812 33.3326 109.831 33.3042 109.812 33.2467L108.578 29.1045C108.568 29.0675 108.554 29.0512 108.536 29.0555C108.518 29.0598 108.504 29.0761 108.495 29.1045L107.287 33.2467C107.278 33.3042 107.296 33.3326 107.342 33.3326Z" fill="#012E58"/>
<path d="M119.08 36.2897L117.364 32.4225C117.358 32.4052 117.346 32.3904 117.331 32.3803C117.315 32.3703 117.297 32.3655 117.279 32.3666H116.002C115.993 32.3653 115.983 32.3663 115.975 32.3693C115.966 32.3723 115.958 32.3774 115.951 32.3842C115.944 32.3909 115.939 32.3991 115.936 32.4081C115.933 32.4172 115.932 32.4268 115.934 32.4362V36.2441C115.934 36.2665 115.929 36.2886 115.921 36.3092C115.912 36.3299 115.9 36.3485 115.884 36.3642C115.868 36.3798 115.849 36.392 115.829 36.4002C115.808 36.4083 115.787 36.4123 115.765 36.4117H114.158C114.136 36.4118 114.115 36.4075 114.095 36.3991C114.075 36.3908 114.056 36.3784 114.041 36.3628C114.026 36.3472 114.014 36.3287 114.006 36.3083C113.997 36.2879 113.993 36.2661 113.994 36.2441V26.8185C113.993 26.7965 113.997 26.7747 114.006 26.7543C114.014 26.7339 114.026 26.7154 114.041 26.6998C114.056 26.6842 114.075 26.6718 114.095 26.6634C114.115 26.6551 114.136 26.6508 114.158 26.6509H118.084C118.62 26.6391 119.151 26.7638 119.628 27.0136C120.063 27.2472 120.422 27.6058 120.658 28.0448C120.907 28.5205 121.032 29.053 121.022 29.5917C121.022 30.2219 120.866 30.7636 120.555 31.2168C120.236 31.6732 119.777 32.0093 119.251 32.1724C119.241 32.1748 119.232 32.1795 119.224 32.1861C119.216 32.1927 119.21 32.201 119.206 32.2104C119.202 32.2198 119.2 32.2301 119.201 32.2403C119.201 32.2506 119.204 32.2606 119.209 32.2695L121.077 36.2175C121.091 36.2439 121.101 36.2732 121.104 36.3034C121.104 36.3782 121.054 36.4151 120.953 36.4151H119.262C119.222 36.4153 119.184 36.4034 119.152 36.381C119.119 36.3586 119.094 36.3268 119.08 36.2897ZM115.936 28.4083V30.794C115.935 30.8034 115.936 30.813 115.939 30.822C115.942 30.8311 115.947 30.8393 115.954 30.846C115.96 30.8527 115.968 30.8578 115.977 30.8609C115.986 30.8639 115.995 30.8648 116.005 30.8636H117.804C118.15 30.8779 118.488 30.7525 118.744 30.5147C118.864 30.3983 118.959 30.2574 119.022 30.1011C119.085 29.9448 119.114 29.7767 119.108 29.608C119.113 29.4384 119.084 29.2694 119.021 29.1121C118.959 28.9547 118.864 28.8125 118.744 28.6945C118.618 28.5749 118.47 28.4818 118.309 28.4207C118.148 28.3597 117.976 28.3318 117.804 28.3387H116.005C115.995 28.3371 115.986 28.3378 115.977 28.3408C115.967 28.3437 115.959 28.3487 115.952 28.3555C115.945 28.3623 115.94 28.3706 115.937 28.3798C115.934 28.3889 115.933 28.3987 115.935 28.4083H115.936Z" fill="#012E58"/>
<path d="M122.476 36.3662C122.46 36.3508 122.448 36.3323 122.439 36.3119C122.431 36.2915 122.427 36.2696 122.427 36.2476V26.8185C122.427 26.7961 122.432 26.774 122.44 26.7534C122.449 26.7328 122.461 26.7141 122.477 26.6985C122.493 26.6829 122.512 26.6706 122.532 26.6624C122.553 26.6543 122.574 26.6504 122.596 26.6509H124.203C124.225 26.6504 124.247 26.6543 124.268 26.6624C124.288 26.6706 124.307 26.6829 124.323 26.6985C124.338 26.7141 124.351 26.7328 124.36 26.7534C124.368 26.774 124.373 26.7961 124.373 26.8185V36.2476C124.373 36.2699 124.368 36.2921 124.36 36.3127C124.351 36.3333 124.338 36.352 124.323 36.3676C124.307 36.3832 124.288 36.3955 124.268 36.4037C124.247 36.4118 124.225 36.4157 124.203 36.4152H122.596C122.574 36.4161 122.552 36.4123 122.531 36.4038C122.51 36.3954 122.491 36.3825 122.476 36.3662Z" fill="#012E58"/>
<path d="M95.8788 22.2612L90.1988 20.9601L87.1457 25.697V14.1616L93.0024 19.5937L95.8788 22.2612Z" fill="#012E58"/>
<path d="M102.473 16.5989C102.488 16.6143 102.5 16.6328 102.509 16.6532C102.517 16.6736 102.521 16.6955 102.52 16.7175V18.126C102.521 18.148 102.517 18.1698 102.508 18.1902C102.5 18.2105 102.488 18.229 102.473 18.2446C102.458 18.2604 102.44 18.2729 102.42 18.2813C102.4 18.2898 102.378 18.2939 102.356 18.2935H101.764C101.755 18.2921 101.745 18.2929 101.736 18.2959C101.727 18.2988 101.719 18.3039 101.713 18.3107C101.706 18.3175 101.701 18.3258 101.698 18.3349C101.695 18.344 101.694 18.3537 101.696 18.3632V20.6362C101.696 20.6589 101.692 20.6816 101.684 20.7027C101.676 20.7238 101.663 20.743 101.647 20.7591C101.632 20.7751 101.613 20.7878 101.592 20.7962C101.571 20.8046 101.549 20.8087 101.527 20.8081H99.9197C99.8973 20.8087 99.875 20.8046 99.8542 20.7962C99.8335 20.7878 99.8146 20.7751 99.7988 20.7591C99.7829 20.743 99.7705 20.7238 99.7622 20.7027C99.7539 20.6816 99.7499 20.6589 99.7505 20.6362V18.3632C99.7518 18.3537 99.7509 18.3441 99.7479 18.3351C99.7449 18.3261 99.7399 18.3178 99.7332 18.3111C99.7266 18.3044 99.7185 18.2993 99.7096 18.2962C99.7007 18.2932 99.6913 18.2923 99.682 18.2935H95.4677C95.4453 18.2941 95.4231 18.2901 95.4023 18.2817C95.3815 18.2732 95.3626 18.2606 95.3468 18.2445C95.331 18.2284 95.3185 18.2093 95.3102 18.1881C95.3019 18.167 95.298 18.1444 95.2985 18.1217V17.0045C95.3013 16.9331 95.3153 16.8626 95.34 16.7957L97.8104 11.1607C97.8252 11.1217 97.8519 11.0885 97.8866 11.0659C97.9213 11.0434 97.9621 11.0326 98.0032 11.0353H99.7184C99.7424 11.032 99.7669 11.0347 99.7897 11.0431C99.8125 11.0515 99.833 11.0653 99.8495 11.0834C99.8607 11.1065 99.8659 11.1321 99.8647 11.1578C99.8635 11.1835 99.856 11.2084 99.8427 11.2303L97.5499 16.4605C97.5453 16.4691 97.5429 16.4787 97.5429 16.4884C97.5429 16.4982 97.5453 16.5078 97.5499 16.5164C97.5532 16.5248 97.5589 16.532 97.5663 16.5371C97.5737 16.5422 97.5824 16.5448 97.5913 16.5447H99.6778C99.6871 16.546 99.6965 16.5451 99.7054 16.542C99.7143 16.539 99.7224 16.5339 99.729 16.5272C99.7356 16.5204 99.7406 16.5122 99.7436 16.5032C99.7466 16.4942 99.7475 16.4846 99.7463 16.4751V14.7503C99.7463 14.728 99.7507 14.7058 99.7592 14.6852C99.7678 14.6646 99.7803 14.6459 99.7961 14.6303C99.8118 14.6147 99.8305 14.6024 99.851 14.5943C99.8715 14.5861 99.8934 14.5822 99.9154 14.5828H101.522C101.544 14.5824 101.566 14.5866 101.586 14.595C101.606 14.6034 101.624 14.6159 101.639 14.6318C101.654 14.6472 101.667 14.6657 101.675 14.6861C101.683 14.7065 101.687 14.7283 101.687 14.7503V16.4803C101.686 16.4897 101.687 16.4994 101.69 16.5085C101.692 16.5177 101.697 16.5259 101.704 16.5327C101.711 16.5395 101.719 16.5446 101.728 16.5476C101.737 16.5505 101.746 16.5513 101.756 16.5499H102.348C102.371 16.5483 102.394 16.5518 102.416 16.5603C102.437 16.5688 102.457 16.5819 102.473 16.5989Z" fill="#FF8257"/>
<path d="M71.4648 17.4745L69.8579 17.4049C69.748 17.4049 69.6939 17.4565 69.6939 17.5588C69.6939 18.0423 69.545 18.433 69.2473 18.7309C68.9496 19.0289 68.5583 19.1775 68.0734 19.177C67.579 19.177 67.1843 19.0283 66.8894 18.7309C66.5945 18.4336 66.4457 18.0429 66.4428 17.5588V14.196C66.4428 13.7027 66.5917 13.3074 66.8894 13.0101C67.1871 12.7127 67.5818 12.5638 68.0734 12.5632C68.5583 12.5632 68.9496 12.7122 69.2473 13.0101C69.545 13.308 69.6939 13.7033 69.6939 14.196C69.6939 14.2983 69.7387 14.349 69.8309 14.349H69.8579L71.4648 14.2519C71.5748 14.233 71.634 14.1823 71.634 14.098C71.6461 13.5016 71.4912 12.9139 71.1874 12.4034C70.887 11.912 70.4532 11.5193 69.9383 11.2724C69.356 10.9976 68.7196 10.8618 68.0777 10.8754C67.4266 10.8609 66.7815 11.0043 66.1959 11.2939C65.6738 11.5558 65.2393 11.9683 64.9467 12.4798C64.6461 13.0197 64.4942 13.6318 64.5069 14.2519V17.4745C64.4942 18.0946 64.6461 18.7068 64.9467 19.2466C65.2402 19.7593 65.6742 20.1741 66.1959 20.4402C66.7799 20.7356 67.4255 20.883 68.0777 20.8699C68.7204 20.8835 69.3574 20.7449 69.9383 20.4652C70.4541 20.2132 70.8877 19.8158 71.1874 19.3205C71.491 18.8067 71.6458 18.2163 71.634 17.6172C71.6336 17.5982 71.6291 17.5796 71.6208 17.5627C71.6124 17.5457 71.6005 17.5309 71.5858 17.5192C71.5528 17.4887 71.5094 17.4727 71.4648 17.4745Z" fill="#FF8257"/>
<path d="M74.808 11.0352C74.7928 11.0194 74.7747 11.0069 74.7546 10.9984C74.7345 10.99 74.713 10.9859 74.6913 10.9862H73.0844C73.0406 10.9862 72.9987 11.0039 72.9678 11.0353C72.9368 11.0667 72.9195 11.1094 72.9195 11.1538V20.5863C72.9195 20.6308 72.9368 20.6734 72.9678 20.7048C72.9987 20.7362 73.0406 20.7539 73.0844 20.7539H74.6913C74.7133 20.7545 74.7352 20.7505 74.7557 20.7424C74.7762 20.7342 74.7948 20.722 74.8106 20.7063C74.8264 20.6907 74.8389 20.6721 74.8475 20.6514C74.856 20.6308 74.8604 20.6087 74.8604 20.5863V11.1538C74.8602 11.1314 74.8555 11.1093 74.8464 11.0889C74.8374 11.0685 74.8243 11.0502 74.808 11.0352Z" fill="#FF8257"/>
<path d="M78.2138 13.6168C78.1987 13.6009 78.1805 13.5884 78.1604 13.58C78.1404 13.5716 78.1188 13.5674 78.0971 13.5678H76.4902C76.4682 13.5678 76.4464 13.5723 76.4261 13.5809C76.4058 13.5896 76.3874 13.6024 76.372 13.6184C76.3567 13.6344 76.3446 13.6534 76.3366 13.6742C76.3285 13.695 76.3247 13.7173 76.3253 13.7397V20.5906C76.3253 20.6126 76.3295 20.6344 76.3378 20.6547C76.3461 20.6751 76.3582 20.6935 76.3736 20.7091C76.3889 20.7247 76.4071 20.737 76.4271 20.7454C76.4471 20.7538 76.4685 20.7582 76.4902 20.7582H78.0971C78.1188 20.7585 78.1404 20.7544 78.1604 20.746C78.1805 20.7375 78.1987 20.725 78.2138 20.7092C78.2292 20.6937 78.2414 20.6752 78.2497 20.6549C78.258 20.6345 78.2622 20.6126 78.262 20.5906V13.7354C78.2622 13.7133 78.258 13.6915 78.2497 13.6711C78.2414 13.6507 78.2292 13.6323 78.2138 13.6168ZM78.0971 10.8754C77.9453 10.7147 77.7493 10.6046 77.5347 10.5594C77.3202 10.5141 77.0972 10.536 76.8951 10.622C76.693 10.708 76.5212 10.8542 76.4025 11.0413C76.2837 11.2285 76.2235 11.4477 76.2297 11.6703C76.2347 11.8493 76.2825 12.0243 76.369 12.1803C76.4555 12.3363 76.5781 12.4685 76.7262 12.5655C76.8743 12.6626 77.0434 12.7215 77.2189 12.7373C77.3944 12.753 77.5711 12.7251 77.7336 12.6559C77.8961 12.5867 78.0396 12.4784 78.1517 12.3402C78.2638 12.202 78.341 12.0382 78.3768 11.8629C78.4126 11.6876 78.4058 11.5061 78.3571 11.334C78.3084 11.1619 78.2191 11.0045 78.0971 10.8754Z" fill="#FF8257"/>
<path d="M82.1211 15.3828C82.3382 15.229 82.5983 15.1506 82.8628 15.1594C83.1417 15.1523 83.4156 15.2354 83.6451 15.3966C83.8524 15.5392 84.0025 15.7526 84.068 15.9981L84.1094 16.2216C84.117 16.2613 84.1381 16.297 84.169 16.3225C84.2 16.348 84.2388 16.3615 84.2786 16.3608H84.3056L85.8855 16.1245C85.9235 16.1218 85.959 16.1043 85.9845 16.0756C86.0101 16.0469 86.0237 16.0093 86.0225 15.9706V15.9423C86.0098 15.7705 85.9728 15.6014 85.9126 15.4404C85.7293 14.8732 85.3608 14.4034 84.8072 14.031C84.2335 13.6532 83.5615 13.4589 82.878 13.4733C82.1451 13.4733 81.5088 13.6546 80.9692 14.0173C80.4356 14.3712 80.0341 14.8968 79.8292 15.51C79.6635 16.0328 79.5846 16.5799 79.5957 17.1291C79.5848 17.6869 79.6636 18.2428 79.8292 18.7748C80.0378 19.3991 80.4403 19.9377 80.976 20.3096C81.5116 20.6814 82.1456 20.8676 82.878 20.8682C83.5534 20.8814 84.2182 20.6974 84.7936 20.338C85.3302 20.0068 85.7284 19.4869 85.9126 18.877C85.9558 18.7411 85.9841 18.6007 85.9971 18.4585C85.9985 18.4198 85.985 18.382 85.9594 18.3533C85.9338 18.3246 85.8982 18.3071 85.8601 18.3047L84.276 18.0469C84.1568 18.028 84.0925 18.0752 84.0841 18.1861C84.0846 18.1937 84.0836 18.2014 84.0811 18.2086C84.0786 18.2159 84.0748 18.2225 84.0697 18.2282C84.0719 18.2575 84.0672 18.287 84.0562 18.3141C83.983 18.5712 83.8258 18.7952 83.6105 18.9492C83.3911 19.1042 83.1291 19.1848 82.862 19.1795C82.5934 19.1876 82.3299 19.1041 82.1135 18.9423C81.9028 18.7775 81.7508 18.5473 81.6805 18.2866C81.5891 18.0076 81.5435 17.6264 81.5435 17.1428C81.5435 16.6593 81.5951 16.2768 81.6982 15.9955C81.7704 15.7503 81.9188 15.5353 82.1211 15.3828Z" fill="#FF8257"/>
<path d="M91.4022 16.1356C91.398 16.1192 91.3971 16.1021 91.3994 16.0853C91.4017 16.0684 91.4073 16.0523 91.4158 16.0376L93.1605 13.7912C93.183 13.758 93.197 13.7196 93.2011 13.6795C93.2011 13.6151 93.1555 13.5815 93.0641 13.5815H91.2373C91.1984 13.5831 91.1601 13.5926 91.1248 13.6094C91.0895 13.6262 91.0579 13.6501 91.0318 13.6795L89.7632 15.18L91.8598 17.1179L91.4022 16.1356Z" fill="#FF8257"/>
<path d="M89.0816 11.1538C89.0816 11.1095 89.0643 11.067 89.0336 11.0356C89.0028 11.0042 88.9611 10.9864 88.9175 10.9862H87.3106C87.2668 10.9862 87.2249 11.0039 87.194 11.0353C87.163 11.0667 87.1457 11.1093 87.1457 11.1538V12.7634L89.0816 14.5526V11.1538Z" fill="#FF8257"/>
<path d="M25.4711 14.3207C24.4626 15.1469 23.2927 15.7456 22.0391 16.0772L20.5726 18.3486L22.2937 28.2039L19.7328 30.7468L17.0687 28.0767L18.7602 18.3804L17.5068 16.0979C16.2227 15.7715 15.0239 15.1651 13.9936 14.3207C12.0383 15.5832 10.5391 17.4563 9.72119 19.6587C8.90327 21.861 8.81085 24.2737 9.45781 26.534C10.1048 28.7943 11.4562 30.7802 13.3089 32.1933C15.1617 33.6064 17.4157 34.3703 19.7323 34.3703C22.049 34.3703 24.303 33.6064 26.1558 32.1933C28.0085 30.7802 29.3599 28.7943 30.0069 26.534C30.6538 24.2737 30.5614 21.861 29.7435 19.6587C28.9256 17.4563 27.4264 15.5832 25.4711 14.3207Z" fill="#FF8257"/>
<path d="M26.3024 7.07352C26.3023 8.57067 25.8069 10.0243 24.8959 11.201C23.9849 12.3776 22.7111 13.209 21.2792 13.5616C19.8472 13.9141 18.3402 13.7674 17.0002 13.145C15.6602 12.5225 14.5649 11.4605 13.8904 10.1295C13.4337 9.23074 13.184 8.23837 13.1599 7.22723C13.1358 6.2161 13.3381 5.21262 13.7515 4.29252C14.1648 3.37242 14.7784 2.55975 15.546 1.91582C16.3136 1.2719 17.2151 0.813558 18.1825 0.57538C19.1499 0.337202 20.1579 0.325413 21.1304 0.540902C22.103 0.756392 23.0146 1.19353 23.7966 1.81933C24.5786 2.44513 25.2105 3.24324 25.6445 4.15342C26.0786 5.06361 26.3036 6.06209 26.3024 7.07352Z" fill="#FF8257"/>
<path d="M31.0741 42.1833L28.5944 33.4898C28.5423 33.3077 28.541 33.1145 28.5907 32.9318C28.6404 32.749 28.739 32.5838 28.8757 32.4547C29.0123 32.3256 29.1816 32.2375 29.3646 32.2004C29.5476 32.1633 29.7371 32.1786 29.912 32.2446L38.6849 35.5463C38.8533 35.6095 38.9991 35.7228 39.1031 35.8715C39.2072 36.0202 39.2646 36.1974 39.268 36.3798C39.2714 36.5622 39.2205 36.7414 39.1221 36.894C39.0236 37.0466 38.8822 37.1654 38.7162 37.235L36.5122 38.1562C35.4667 38.5954 34.6109 39.401 34.1001 40.4267L32.8789 42.8828C32.8035 43.0345 32.6862 43.1607 32.5414 43.2458C32.3966 43.331 32.2305 43.3715 32.0635 43.3624C31.8964 43.3533 31.7356 43.2949 31.6006 43.1945C31.4656 43.0941 31.3623 42.9559 31.3033 42.7969L31.0741 42.1833Z" fill="#FF8257"/>
<path d="M27.1642 36.025C23.9539 37.9883 20.1167 38.6022 16.4679 37.7363C12.8192 36.8704 9.64655 34.5929 7.62411 31.3878C5.60168 28.1827 4.88888 24.3026 5.63716 20.572C6.38544 16.8414 8.53583 13.5542 11.6314 11.4091C10.9377 10.0728 10.5762 8.58432 10.5785 7.07352C10.5785 6.86956 10.5847 6.66732 10.5971 6.4668C7.58512 8.1349 5.07137 10.5971 3.32035 13.5944C1.56934 16.5917 0.645817 20.0132 0.64697 23.4987C0.64697 34.2091 9.18892 42.8914 19.7319 42.8914C22.8036 42.8961 25.8306 42.1441 28.5538 40.7L27.1642 36.025Z" fill="#012E58"/>
<path d="M28.8667 6.4668C28.8797 6.66789 28.8862 6.87013 28.8862 7.07352C28.8884 8.58432 28.5269 10.0728 27.8332 11.4091C30.8974 13.5314 33.0377 16.7731 33.8081 20.459C34.5785 24.1449 33.9197 27.9907 31.9689 31.1953L36.5198 32.7241C38.9205 28.2087 39.4631 22.9108 38.0288 17.9898C36.5945 13.0688 33.3002 8.92557 28.8667 6.4668Z" fill="#012E58"/>
<path d="M29.2326 29.8838L29.1945 29.8822C29.0788 29.8774 28.9811 29.9689 28.9764 30.0865L28.9382 31.0362C28.9335 31.1538 29.0235 31.253 29.1392 31.2578L29.1772 31.2594C29.293 31.2642 29.3906 31.1727 29.3954 31.0551L29.4336 30.1055C29.4383 29.9879 29.3483 29.8886 29.2326 29.8838Z" fill="#012E58"/>
<path d="M27.1709 30.684L27.1441 30.7114C27.0624 30.7949 27.0628 30.9298 27.1449 31.0128L27.8083 31.6829C27.8905 31.7659 28.0233 31.7655 28.1049 31.682L28.1318 31.6546C28.2134 31.5711 28.213 31.4361 28.1309 31.3532L27.4675 30.6831C27.3854 30.6001 27.2526 30.6005 27.1709 30.684Z" fill="#012E58"/>
<path d="M31.2525 30.8291L31.2277 30.7998C31.1524 30.7103 31.02 30.6999 30.932 30.7764L30.2213 31.3943C30.1333 31.4708 30.123 31.6053 30.1983 31.6948L30.223 31.7242C30.2983 31.8136 30.4307 31.8241 30.5187 31.7475L31.2295 31.1296C31.3175 31.0531 31.3278 30.9186 31.2525 30.8291Z" fill="#012E58"/>
<path d="M27.643 32.7242L27.6423 32.6855C27.64 32.5678 27.5443 32.4743 27.4285 32.4765L26.4933 32.495C26.3775 32.4972 26.2854 32.5945 26.2876 32.7122L26.2884 32.7508C26.2906 32.8685 26.3863 32.9621 26.5021 32.9598L27.4374 32.9414C27.5532 32.9391 27.6452 32.8418 27.643 32.7242Z" fill="#012E58"/>
<path d="M28.0397 33.7755L28.0127 33.7483C27.9306 33.6653 27.7978 33.6657 27.7161 33.7492L27.0566 34.4232C26.975 34.5067 26.9754 34.6417 27.0575 34.7246L27.0845 34.7519C27.1667 34.8349 27.2995 34.8345 27.3811 34.751L28.0406 34.0769C28.1223 33.9935 28.1219 33.8585 28.0397 33.7755Z" fill="#012E58"/>
</svg>
