<svg id="Layer_1" data-name="Layer 1" xmlns="http://www.w3.org/2000/svg" viewBox="0 0 822.5 1020"><defs><style>.cls-1{opacity:0.12;}.cls-2{fill:#fff;}.cls-3{fill:#007cff;}.cls-4,.cls-5{opacity:0.1;}.cls-5{fill:#151616;}.cls-6{fill:#ffb570;}.cls-7{fill:#eb996e;}.cls-8{fill:#ffbe9d;}.cls-9{fill:#263238;}.cls-10{fill:#484c5e;}.cls-11{fill:#455a64;}.cls-12,.cls-15{opacity:0.3;}.cls-13{fill:#202020;}.cls-14{fill:#e8e8e8;}.cls-16{fill:#005493;}.cls-17{fill:#067ac1;}.cls-18,.cls-19{fill:none;stroke:#007cff;stroke-linecap:round;stroke-linejoin:round;}.cls-18{stroke-width:1.56px;}.cls-19{stroke-width:1.04px;}</style></defs><path class="cls-1" d="M441.56,84.09C355,90.37,260.5,101.83,191.2,128.44l21.88,148.08s134.32-48.06,243.6-44.72Z" transform="translate(-128.75 -30)"/><path class="cls-2" d="M436.89,98.09c-86.56,6.29-181.06,17.75-250.36,44.36l21.88,148.08S342.73,242.47,452,245.8Z" transform="translate(-128.75 -30)"/><path class="cls-3" d="M309.39,146a22.14,22.14,0,0,1-3.91.42c-2.52.17-6.17.47-10.66.9a295.27,295.27,0,0,0-68.72,15c-4.26,1.48-7.7,2.72-10.06,3.62a23.75,23.75,0,0,1-3.74,1.24,21.86,21.86,0,0,1,3.54-1.73c2.31-1,5.7-2.43,9.94-4a248.69,248.69,0,0,1,69-15c4.52-.32,8.18-.47,10.71-.48A22.82,22.82,0,0,1,309.39,146Z" transform="translate(-128.75 -30)"/><path class="cls-3" d="M315.12,162.71a23.68,23.68,0,0,1-3.92.42c-2.52.17-6.16.47-10.65.9a293.62,293.62,0,0,0-68.72,15c-4.27,1.47-7.71,2.72-10.07,3.61a21.42,21.42,0,0,1-3.73,1.24,22.42,22.42,0,0,1,3.54-1.72c2.3-1,5.7-2.43,9.94-4a249.64,249.64,0,0,1,69-15c4.52-.31,8.18-.46,10.71-.47A20.64,20.64,0,0,1,315.12,162.71Z" transform="translate(-128.75 -30)"/><path class="cls-3" d="M320.84,179.38a22.41,22.41,0,0,1-3.91.43c-2.52.17-6.16.46-10.65.9a301.56,301.56,0,0,0-34.81,5.42,305.59,305.59,0,0,0-33.92,9.54c-4.26,1.48-7.7,2.72-10.06,3.62a23,23,0,0,1-3.73,1.24,20.87,20.87,0,0,1,3.53-1.73c2.31-1,5.7-2.43,9.94-4a249.61,249.61,0,0,1,69-15c4.51-.31,8.18-.47,10.71-.48A22.74,22.74,0,0,1,320.84,179.38Z" transform="translate(-128.75 -30)"/><path class="cls-3" d="M324.07,197.4a21.31,21.31,0,0,1-3.81.37c-2.45.14-6,.39-10.38.76a279.74,279.74,0,0,0-66.95,14c-4.16,1.42-7.51,2.61-9.81,3.48a20.41,20.41,0,0,1-3.64,1.18,22.22,22.22,0,0,1,3.45-1.67c2.24-1,5.55-2.35,9.68-3.88a235.75,235.75,0,0,1,67.21-14.06c4.39-.26,8-.36,10.42-.34A21.33,21.33,0,0,1,324.07,197.4Z" transform="translate(-128.75 -30)"/><path class="cls-3" d="M319.77,215.46a16,16,0,0,1-3.41.39l-9.31.69a234.37,234.37,0,0,0-30.39,4.3,235.24,235.24,0,0,0-29.44,8.73l-8.75,3.25a16.51,16.51,0,0,1-3.26,1.06,16.7,16.7,0,0,1,3.06-1.55c2-.93,4.95-2.17,8.62-3.64a178.37,178.37,0,0,1,60.1-13.1c3.94-.18,7.14-.27,9.35-.26A17.5,17.5,0,0,1,319.77,215.46Z" transform="translate(-128.75 -30)"/><path class="cls-3" d="M284,236.86c0,.19-2.48.84-6.52,1.93s-9.61,2.69-15.67,4.72-11.49,4-15.43,5.48-6.39,2.32-6.46,2.14,2.25-1.34,6.11-3,9.25-3.85,15.36-5.87a148.07,148.07,0,0,1,15.86-4.36C281.41,237,284,236.69,284,236.86Z" transform="translate(-128.75 -30)"/><path class="cls-3" d="M385,166a1.79,1.79,0,1,0-3.43,1,36.47,36.47,0,0,1-19.5,43.43,1.78,1.78,0,0,0-.86,2.38,1.81,1.81,0,0,0,2.12,1,1.45,1.45,0,0,0,.26-.11A40,40,0,0,0,385,166" transform="translate(-128.75 -30)"/><path class="cls-3" d="M372,127.84a40.28,40.28,0,0,0-27.33,49.91,1.79,1.79,0,1,0,3.43-1,36.66,36.66,0,0,1,70.38-20.58,74.45,74.45,0,0,1,3,24.16,1.78,1.78,0,0,0,1.71,1.86,1.85,1.85,0,0,0,.58-.07,1.79,1.79,0,0,0,1.28-1.64,78.14,78.14,0,0,0-3.1-25.31A40.28,40.28,0,0,0,372,127.84" transform="translate(-128.75 -30)"/><path class="cls-3" d="M392.39,163.8a9.48,9.48,0,0,0-18.19,5.32,28.86,28.86,0,0,1-17,35,1.79,1.79,0,0,0,1.34,3.32,32.42,32.42,0,0,0,19.06-39.32A5.91,5.91,0,0,1,389,164.81,44.71,44.71,0,0,1,368,216a1.79,1.79,0,0,0,1.37,3.28,2,2,0,0,0,.37-.16,48.28,48.28,0,0,0,22.67-55.33" transform="translate(-128.75 -30)"/><path class="cls-3" d="M403.18,202.5a33,33,0,0,1-5-6.87,1.79,1.79,0,0,0-3.24.21,51.76,51.76,0,0,1-19.91,24.85,1.79,1.79,0,1,0,2,3,55.21,55.21,0,0,0,19.9-23.27,37.4,37.4,0,0,0,3.65,4.56,37,37,0,0,0,15.88,9.91,1.76,1.76,0,0,0,1,0,1.78,1.78,0,0,0,1.21-2.22,1.81,1.81,0,0,0-1.23-1.22,33.37,33.37,0,0,1-14.3-8.94" transform="translate(-128.75 -30)"/><path class="cls-3" d="M424.19,197.28a17.68,17.68,0,0,1-14.57-16.76A62.41,62.41,0,0,0,409,167.7a64.15,64.15,0,0,0-1.82-8.21,24.86,24.86,0,0,0-47.72,13.95,13.62,13.62,0,0,1-9.11,16.82,1.79,1.79,0,0,0,1,3.43h0a17.2,17.2,0,0,0,11.51-21.24,21.29,21.29,0,0,1,40.86-11.95,58.74,58.74,0,0,1,1.72,7.75,59.64,59.64,0,0,1,.6,12.17.76.76,0,0,0,0,.15,21.55,21.55,0,0,0,.84,5.29,21.17,21.17,0,0,0,16.67,15,1.87,1.87,0,0,0,.82,0,1.81,1.81,0,0,0,1.26-1.4,1.79,1.79,0,0,0-1.44-2.08" transform="translate(-128.75 -30)"/><path class="cls-3" d="M421.53,204.59a25.36,25.36,0,0,1-19.61-24.11,55.34,55.34,0,0,0-.1-7.82,55.92,55.92,0,0,0-2.05-11,17.17,17.17,0,1,0-32.95,9.64,21.23,21.23,0,0,1-13.49,26.09,1.78,1.78,0,0,0,1.17,3.37,24.8,24.8,0,0,0,15.75-30.47,13.6,13.6,0,0,1,26.1-7.63,52.41,52.41,0,0,1,2,17.73,1,1,0,0,0,0,.24,29,29,0,0,0,22.36,27.45,1.75,1.75,0,0,0,.91,0,1.79,1.79,0,0,0-.09-3.46" transform="translate(-128.75 -30)"/><path class="cls-3" d="M425.72,189.74a10,10,0,0,1-8-7.05,9.56,9.56,0,0,1-.38-2.2v-.07a.25.25,0,0,1,0-.09A71,71,0,0,0,415,158.92c-.13-.53-.28-1-.44-1.59a32.55,32.55,0,0,0-62.48,18.27,5.92,5.92,0,0,1-3.93,7.3,1.79,1.79,0,0,0,1.05,3.42,9.51,9.51,0,0,0,6.31-11.72,29,29,0,1,1,55.62-16.26c.15.49.28,1,.41,1.48a65.58,65.58,0,0,1,1.93,10.41,62.84,62.84,0,0,1,.31,9.91,2.81,2.81,0,0,0,0,.29.76.76,0,0,0,0,.15,14.23,14.23,0,0,0,.52,3.12,13.63,13.63,0,0,0,10.9,9.58,1.79,1.79,0,0,0,.56-3.54" transform="translate(-128.75 -30)"/><path class="cls-3" d="M405,214a40.85,40.85,0,0,1-5.79-4.59,1.8,1.8,0,0,0-2.73.33,59.87,59.87,0,0,1-12.77,14.16,1.77,1.77,0,0,0-.68,2,1.78,1.78,0,0,0,2.83.89,62.84,62.84,0,0,0,12.45-13.34,44,44,0,0,0,4.73,3.57,44.49,44.49,0,0,0,7.45,3.94,1.79,1.79,0,0,0,1.36-3.31A39.57,39.57,0,0,1,405,214" transform="translate(-128.75 -30)"/><path class="cls-4" d="M372,127.84a40.28,40.28,0,0,0-27.33,49.91,1.79,1.79,0,1,0,3.43-1,36.66,36.66,0,0,1,70.38-20.58,74.45,74.45,0,0,1,3,24.16,1.78,1.78,0,0,0,1.71,1.86,1.85,1.85,0,0,0,.58-.07,1.79,1.79,0,0,0,1.28-1.64,78.14,78.14,0,0,0-3.1-25.31A40.28,40.28,0,0,0,372,127.84" transform="translate(-128.75 -30)"/><path class="cls-4" d="M392.39,163.8a9.48,9.48,0,0,0-18.19,5.32,28.86,28.86,0,0,1-17,35,1.79,1.79,0,0,0,1.34,3.32,32.42,32.42,0,0,0,19.06-39.32A5.91,5.91,0,0,1,389,164.81,44.71,44.71,0,0,1,368,216a1.79,1.79,0,0,0,1.37,3.28,2,2,0,0,0,.37-.16,48.28,48.28,0,0,0,22.67-55.33" transform="translate(-128.75 -30)"/><path class="cls-4" d="M424.19,197.28a17.68,17.68,0,0,1-14.57-16.76A62.41,62.41,0,0,0,409,167.7a64.15,64.15,0,0,0-1.82-8.21,24.86,24.86,0,0,0-47.72,13.95,13.62,13.62,0,0,1-9.11,16.82,1.79,1.79,0,0,0,1,3.43h0a17.2,17.2,0,0,0,11.51-21.24,21.29,21.29,0,0,1,40.86-11.95,58.74,58.74,0,0,1,1.72,7.75,59.64,59.64,0,0,1,.6,12.17.76.76,0,0,0,0,.15,21.55,21.55,0,0,0,.84,5.29,21.17,21.17,0,0,0,16.67,15,1.87,1.87,0,0,0,.82,0,1.81,1.81,0,0,0,1.26-1.4,1.79,1.79,0,0,0-1.44-2.08" transform="translate(-128.75 -30)"/><path class="cls-4" d="M405,214a40.85,40.85,0,0,1-5.79-4.59,1.8,1.8,0,0,0-2.73.33,59.87,59.87,0,0,1-12.77,14.16,1.77,1.77,0,0,0-.68,2,1.78,1.78,0,0,0,2.83.89,62.84,62.84,0,0,0,12.45-13.34,44,44,0,0,0,4.73,3.57,44.49,44.49,0,0,0,7.45,3.94,1.79,1.79,0,0,0,1.36-3.31A39.57,39.57,0,0,1,405,214" transform="translate(-128.75 -30)"/><path class="cls-1" d="M875.17,130C790.42,104.16,718.91,82.1,622.9,82.71l-14.67,150.9c99.72,8.83,133,15.35,225.13,48.68Z" transform="translate(-128.75 -30)"/><path class="cls-2" d="M863.5,139.33C778.74,113.5,707.24,91.44,611.23,92.05L596.56,243c99.71,8.83,133,15.35,225.13,48.68Z" transform="translate(-128.75 -30)"/><path class="cls-3" d="M694.14,192.37q-6.48-2.93-12.86-5.64c.17-1.46.32-2.92.47-4.38a29,29,0,0,0,2.33-3.74,30,30,0,0,1,1.77-3,16.16,16.16,0,0,0,5.44-8.7c.79-3.9-.08-6-.56-6.89a53.77,53.77,0,0,0-.94-11.72c-.23-4.52-1.1-7.26-2.91-9.63a7.3,7.3,0,0,0-4.57-2.56,6.83,6.83,0,0,1-1.38-.41,14.3,14.3,0,0,0-7.88-2.73c-6,.19-13,4.73-15.83,12.63-.78,2.25-.94,5.64-1.15,9.52,0,.52-.07,1-.12,1.54a10,10,0,0,0-1.19,6.34c.3,3.65,2.15,6.59,3.94,9a23.11,23.11,0,0,1,1.18,3.21,36.29,36.29,0,0,0,1.45,4c-.19,1.38-.4,2.75-.61,4.11q-6.74.5-13.52.94a13.81,13.81,0,0,0-12.1,9.94q-.93,3.47-2,6.89a2.76,2.76,0,0,0,2.18,3.51q30.6,6.63,61.93,14.74a3.06,3.06,0,0,0,3.71-2.73q.67-4.24,1.23-8.51C703.05,201.47,699.51,194.75,694.14,192.37Z" transform="translate(-128.75 -30)"/><path class="cls-3" d="M830.74,168.09a19.47,19.47,0,0,1-3.3-1.33c-2.08-.95-5.11-2.27-8.88-3.84a266.21,266.21,0,0,0-61.22-17.47c-4-.65-7.3-1.12-9.57-1.42a19.9,19.9,0,0,1-3.51-.61,20.33,20.33,0,0,1,3.56.14c2.29.15,5.59.5,9.65,1a225.6,225.6,0,0,1,61.43,17.53c3.74,1.68,6.72,3.12,8.75,4.2A20.8,20.8,0,0,1,830.74,168.09Z" transform="translate(-128.75 -30)"/><path class="cls-3" d="M828.18,183.84a18.73,18.73,0,0,1-3.3-1.33c-2.09-.94-5.12-2.27-8.89-3.84a266.32,266.32,0,0,0-61.21-17.47c-4-.65-7.31-1.12-9.58-1.42a19.26,19.26,0,0,1-3.51-.61,20.33,20.33,0,0,1,3.56.14c2.29.15,5.59.5,9.65,1a225.6,225.6,0,0,1,61.43,17.53c3.74,1.68,6.73,3.13,8.75,4.2A22.13,22.13,0,0,1,828.18,183.84Z" transform="translate(-128.75 -30)"/><path class="cls-3" d="M825.61,199.6a21,21,0,0,1-3.3-1.34c-2.08-.94-5.12-2.27-8.89-3.84A266.32,266.32,0,0,0,752.21,177c-4-.65-7.31-1.12-9.58-1.42a18.76,18.76,0,0,1-3.5-.61,20.33,20.33,0,0,1,3.56.14c2.28.15,5.58.5,9.64,1a225.53,225.53,0,0,1,61.44,17.53c3.73,1.68,6.72,3.13,8.74,4.2A19.65,19.65,0,0,1,825.61,199.6Z" transform="translate(-128.75 -30)"/><path class="cls-3" d="M820.47,215.35a20.31,20.31,0,0,1-3.19-1.34c-2-.94-5-2.26-8.6-3.83a262.53,262.53,0,0,0-29.17-10.56,257.78,257.78,0,0,0-30.23-6.91c-3.92-.65-7.11-1.13-9.31-1.43a17.9,17.9,0,0,1-3.41-.61,19.21,19.21,0,0,1,3.46.14c2.23.15,5.44.5,9.39,1.05A213.62,213.62,0,0,1,809,209.4c3.61,1.68,6.5,3.12,8.46,4.19A17.76,17.76,0,0,1,820.47,215.35Z" transform="translate(-128.75 -30)"/><path class="cls-3" d="M809.32,227.91a14.79,14.79,0,0,1-2.89-1.15l-7.72-3.43a188.33,188.33,0,0,0-53.29-15.2L737.05,207a14.23,14.23,0,0,1-3.06-.55,15.67,15.67,0,0,1,3.11.08c2,.12,4.87.38,8.43.78a161.53,161.53,0,0,1,53.54,15.27c3.22,1.54,5.81,2.83,7.56,3.79A16,16,0,0,1,809.32,227.91Z" transform="translate(-128.75 -30)"/><path class="cls-3" d="M771.66,229.69c0,.17-2.34-.39-6-1.25s-8.81-2-14.51-2.94-10.9-1.7-14.66-2.24-6.09-.87-6.07-1,2.37-.11,6.17.2,9,.89,14.76,1.89a130.29,130.29,0,0,1,14.52,3.31C769.5,228.68,771.7,229.54,771.66,229.69Z" transform="translate(-128.75 -30)"/><path class="cls-3" d="M624.32,106.7s.64-.06,1.95-.11l5.84-.19c5.15-.12,12.6,0,22.13.5A352.28,352.28,0,0,1,732,120.81l.43.13-.08.46L712.13,237.15c-.31,1.72-.61,3.44-.9,5.13l-.12.65-.64-.17a516.54,516.54,0,0,0-51.91-10.71c-16.73-2.56-32.72-4.38-47.58-5.32l-.57,0,.06-.56c4.09-35.69,7.51-65.59,9.92-86.63,1.22-10.41,2.19-18.62,2.85-24.28q.51-4.12.78-6.38c.09-.68.16-1.21.21-1.62a2.59,2.59,0,0,1,.09-.52,4.16,4.16,0,0,1,0,.58c0,.43-.09,1-.15,1.69q-.24,2.28-.66,6.48c-.6,5.7-1.47,14-2.58,24.42-2.27,21-5.51,50.79-9.36,86.38l-.51-.6c14.93.91,30.94,2.7,47.71,5.24a508.3,508.3,0,0,1,52,10.7l-.75.48c.29-1.69.6-3.41.9-5.13,7.49-42.54,14.5-82.29,20.39-115.72l.35.58a361.11,361.11,0,0,0-77.47-14.3c-9.48-.63-17-.8-22-.79l-5.8,0Z" transform="translate(-128.75 -30)"/><ellipse class="cls-5" cx="412.71" cy="966.96" rx="173.73" ry="53.04"/><polyline class="cls-2" points="404.64 388.3 487.29 406.6 499.92 388.3 497.88 364.73 485.32 353.26 442.02 353.26 401.6 389.66"/><path class="cls-6" d="M659.42,248.08,763.75,234l16.42-4.63s37.6-8.26,41.12-9.52c4.05-1.45,5.73.16,6.16,1.69.67,2.39-1.61,5.06-5.06,6.42-1.19.46-20.26,7.07-20.26,7.07a47.6,47.6,0,0,1,6.44,1.86c4.56,1.55,8.94,7.43,11.13,14.29s2.2,9-.42,9.94a3.56,3.56,0,0,1-3-.42,7.05,7.05,0,0,1-3.13-3.92c-3.66-10.93-10.5-11.8-10.5-11.8l-2.15.61s7.06,4.93,6.93,10.89a6.78,6.78,0,0,1-.54,2.56,9,9,0,0,1-10.06,11.86c-1.5-.26-3.13-1.14-3.34-2.65a4.7,4.7,0,0,1,.48-2.34,7.17,7.17,0,0,0,.37-1.22l-6.26.86s-14.15,1.17-20.26,2.37l-97.7,29.42A25.3,25.3,0,0,1,638.45,280h0A25.29,25.29,0,0,1,659.42,248.08Z" transform="translate(-128.75 -30)"/><path class="cls-6" d="M766.17,236.69c.16,2.19,2.35,3.71,4.49,4.16s4.39.16,6.56.45c6.5.88,11.55,6.79,18.09,7.35.91.08,2.06-.11,2.33-1s-.45-1.58-1.09-2.14l-16.27-14.38" transform="translate(-128.75 -30)"/><path class="cls-7" d="M780.28,231.15a8.5,8.5,0,0,1,1.92,1.37c1.18.95,2.86,2.35,4.93,4.1s4.56,3.91,7.2,6.19l2.08,1.8c.61.62,1.69,1.16,1.88,2.65a1.83,1.83,0,0,1-1.11,1.73,3.82,3.82,0,0,1-1.76.29,14.55,14.55,0,0,1-3.14-.62c-4.1-1.34-7.26-3.82-10.44-5.3a16.21,16.21,0,0,0-4.64-1.54c-1.51-.23-3-.18-4.37-.28-2.78-.07-5-1.26-6-2.57s-.76-2.32-.71-2.28a6.32,6.32,0,0,0,1.08,2,7.41,7.41,0,0,0,5.62,2c1.33.05,2.82-.06,4.47.14a16.93,16.93,0,0,1,5,1.53c3.32,1.49,6.52,3.92,10.32,5.14a13.27,13.27,0,0,0,2.84.58c.9.06,1.67-.27,1.59-.74s-.76-1.2-1.46-1.81l-2-1.84c-2.59-2.34-5-4.49-7-6.39s-3.59-3.33-4.67-4.39A8.64,8.64,0,0,1,780.28,231.15Z" transform="translate(-128.75 -30)"/><path class="cls-7" d="M800.28,245.4a8.9,8.9,0,0,1,4.1-.05A6.83,6.83,0,0,1,808,247.8a17.57,17.57,0,0,1,2.57,4.88,28.58,28.58,0,0,0,2.38,5.2,9.06,9.06,0,0,0,3.41,3.28,3.56,3.56,0,0,0,3.19.08c.68-.37.94-.71.92-.73s-.37.19-1,.44a3.38,3.38,0,0,1-2.81-.29,9,9,0,0,1-3.05-3.17,31.09,31.09,0,0,1-2.25-5.1,17.3,17.3,0,0,0-2.75-5.06,7.29,7.29,0,0,0-4-2.53,6.37,6.37,0,0,0-3.19.1C800.6,245.12,800.26,245.36,800.28,245.4Z" transform="translate(-128.75 -30)"/><path class="cls-7" d="M823.71,227.44a24,24,0,0,0-3.8,1.29l-9.06,3.34-9.12,3.19a22.28,22.28,0,0,0-3.75,1.43,18.63,18.63,0,0,0,3.92-.89c2.39-.67,5.65-1.7,9.22-3s6.74-2.56,9-3.56A17,17,0,0,0,823.71,227.44Z" transform="translate(-128.75 -30)"/><path class="cls-7" d="M797.52,251.22s.28.36.82.95a3.73,3.73,0,0,1,1.18,2.87,2,2,0,0,1-1.23,1.55,10.89,10.89,0,0,1-2.53.69,4.53,4.53,0,0,0-2.81,1.51,3.82,3.82,0,0,0-.48,3.43,4.37,4.37,0,0,0,2.35,2.52,5.4,5.4,0,0,0,3.14.46,17.71,17.71,0,0,0,4.84-1.8,10.54,10.54,0,0,0,2.79-2.08,2.43,2.43,0,0,0,.65-1.1c-.06,0-.29.35-.87.88a12.54,12.54,0,0,1-2.83,1.8,19.21,19.21,0,0,1-4.69,1.58c-1.68.24-4-.61-4.62-2.51a3.08,3.08,0,0,1,.35-2.72,3.9,3.9,0,0,1,2.35-1.25,10.62,10.62,0,0,0,2.67-.83,2.58,2.58,0,0,0,1.48-2.07,3.89,3.89,0,0,0-1.52-3.15C797.93,251.41,797.55,251.18,797.52,251.22Z" transform="translate(-128.75 -30)"/><path class="cls-7" d="M795.29,264.22s-.45,0-1,.49a3.51,3.51,0,0,0-1.17,2.9,4.69,4.69,0,0,0,2.77,3.71,7.66,7.66,0,0,0,5.66.08A9.24,9.24,0,0,0,806,268a8.92,8.92,0,0,0,1.52-4.36,8.35,8.35,0,0,0-.34-3.08c-.23-.7-.44-1-.48-1a15,15,0,0,1,.25,4,8.57,8.57,0,0,1-5.71,7.09,7.16,7.16,0,0,1-5.1,0,4.18,4.18,0,0,1-2.51-3.1,3.32,3.32,0,0,1,.83-2.62C794.93,264.43,795.31,264.29,795.29,264.22Z" transform="translate(-128.75 -30)"/><path class="cls-7" d="M777.92,255.65a3.22,3.22,0,0,0-.67-1.81,7.55,7.55,0,0,0-3.8-3.11l0,.71a21.31,21.31,0,0,0,2.38-1.33c4.51-2.84,6.74-6.66,6.55-6.74s-2.64,3.34-7,6.07a26,26,0,0,1-2.29,1.31l-.81.41.85.29a8,8,0,0,1,3.66,2.66C777.56,255,777.82,255.68,777.92,255.65Z" transform="translate(-128.75 -30)"/><path class="cls-7" d="M810.41,244.5c-.15-.15-1.25,1.07-1.37,3s.79,3.28,1,3.15-.3-1.43-.17-3.1S810.61,244.63,810.41,244.5Z" transform="translate(-128.75 -30)"/><path class="cls-6" d="M323.58,280.81s-15.24-24.7-17.94-26.79-26.82-10.93-28.88-10.28-31.3,5.64-27.94,9.11,23.75-.3,23.75-.3l2.73,1.37s-17.61,2.81-21.32,5c-3.41,2-2.24,6.15,1,5.82s18.52-3.3,19.43-2.67-16.64,4.13-18.53,5.25c-2.55,1.5-2.8,6,.41,5.8,1.89-.13,18.45-4.41,18.45-4.41s-13.13,5.06-14.34,6.21c-2,1.88-.41,4.74,2.43,4.11,1.95-.43,11.23-4.85,13.84-5.42,0,0,2.45.65,4.67,5.6,1,2.3,5.74,16.7,14.36,16.51,7.63-.17,15.13,6.12,15.13,6.12Z" transform="translate(-128.75 -30)"/><path class="cls-7" d="M248.88,252.92c0,.16,1.92,1,5.33,1.48a31.45,31.45,0,0,0,6,.25c2.24-.25,4.68-.6,7.25-1l5.45-.8-.33,0c7.21,2.57,12.49,4.25,12.6,4s-5-2.45-12.16-5.19l-.14-.06-.19,0-5.41.73-7.16,1a39.43,39.43,0,0,1-5.83,0C251,253.2,248.93,252.72,248.88,252.92Z" transform="translate(-128.75 -30)"/><path class="cls-8" d="M312.16,277.88c-1.78,1.65-4.71,1.25-6.8,0s-3.68-3.17-5.66-4.58c-5.95-4.18-14.51-3.19-20.25-7.66-.8-.62-1.59-1.64-1.15-2.55s1.55-.95,2.49-.92l24.08.57" transform="translate(-128.75 -30)"/><path class="cls-7" d="M304.87,262.73a10.33,10.33,0,0,0-2.6-.33c-1.67-.12-4.1-.25-7.09-.38l-10.53-.4-3-.1c-1,0-2.25-.33-3.53.73a2,2,0,0,0-.4,2.25,4.21,4.21,0,0,0,1.21,1.55,16.06,16.06,0,0,0,3,1.87c4.34,2,8.78,2.37,12.47,3.56a18.24,18.24,0,0,1,4.94,2.25c1.4,1,2.57,2.11,3.76,3.07,2.31,2,5,2.77,6.77,2.39s2.37-1.31,2.31-1.31a7.25,7.25,0,0,1-2.37.78,8.24,8.24,0,0,1-6.08-2.6A48.8,48.8,0,0,0,300,272.8a18.67,18.67,0,0,0-5.21-2.52c-3.83-1.29-8.26-1.73-12.27-3.6a15,15,0,0,1-2.74-1.68c-.78-.62-1.16-1.47-.74-1.8s1.52-.4,2.55-.37l3.05.05,10.53.11c3,0,5.43,0,7.11-.05A9.12,9.12,0,0,0,304.87,262.73Z" transform="translate(-128.75 -30)"/><path class="cls-9" d="M442.26,827.68l-5.56,61.25L418.33,936.1a6.29,6.29,0,0,0,4,8.3h0a6.28,6.28,0,0,0,5.68-1c10.34-7.88,48.25-37.06,48.41-41.57.18-5.21,10.16-64.21,10.16-64.21Z" transform="translate(-128.75 -30)"/><path class="cls-9" d="M439.33,919.3c-.37.13-1.38-3.23-4.82-5.37s-6.85-1.76-6.88-2.14c0-.16.79-.55,2.24-.58a10,10,0,0,1,9.05,5.8C439.49,918.35,439.48,919.27,439.33,919.3Z" transform="translate(-128.75 -30)"/><path class="cls-9" d="M434,927c-.32.24-2.05-2-5.11-3.24s-5.83-1.06-5.88-1.45,2.95-1.29,6.41.21S434.38,926.86,434,927Z" transform="translate(-128.75 -30)"/><path class="cls-9" d="M448.62,909.73c-.31.26-3-3.15-7.55-5.54s-8.86-2.73-8.82-3.14,4.57-.67,9.45,2S448.94,909.6,448.62,909.73Z" transform="translate(-128.75 -30)"/><path class="cls-9" d="M451.87,891.26c-.2.34-3.42-1.45-7.79-2.11s-8,0-8.07-.4,3.58-1.7,8.28-.94S452.1,891,451.87,891.26Z" transform="translate(-128.75 -30)"/><path class="cls-9" d="M454,873.32c-.23.33-3.39-2.09-8-2.41s-8.16,1.47-8.34,1.11c-.08-.14.67-.83,2.17-1.48a13.7,13.7,0,0,1,12.31,1C453.43,872.39,454.07,873.19,454,873.32Z" transform="translate(-128.75 -30)"/><path class="cls-9" d="M446.4,867.51a5.51,5.51,0,0,1,.18-2.32,16.36,16.36,0,0,1,2.53-5.85,7.15,7.15,0,0,1,3.44-3.05,2.53,2.53,0,0,1,2.77.88A4.13,4.13,0,0,1,456,860a8.91,8.91,0,0,1-8.69,7.31,10.32,10.32,0,0,1-9.47-6.52,3.52,3.52,0,0,1,.17-3,2.48,2.48,0,0,1,2.73-1,8.77,8.77,0,0,1,3.78,2.56,17.74,17.74,0,0,1,3.63,5.22,5.33,5.33,0,0,1,.7,2.22c-.23.13-1.2-3.18-5-6.76a8.23,8.23,0,0,0-3.35-2.14,1.36,1.36,0,0,0-1.5.54,2.48,2.48,0,0,0,0,2,9.21,9.21,0,0,0,8.27,5.56c3.73,0,7-3,7.47-6.1a3,3,0,0,0-.37-2,1.38,1.38,0,0,0-1.52-.51,6.42,6.42,0,0,0-3,2.53C446.8,864.09,446.67,867.6,446.4,867.51Z" transform="translate(-128.75 -30)"/><path class="cls-10" d="M498.58,863.61l45.84-363-14.66-84.37-86.44,4.59-10.77,436a6.67,6.67,0,0,0,5.39,6.72l50.34,7.76A9,9,0,0,0,498.58,863.61Z" transform="translate(-128.75 -30)"/><path class="cls-10" d="M543.1,512.83l83.37,82.5-120,29.17L515.06,685l162.36-22.09A51.1,51.1,0,0,0,712,642.18h0a51.09,51.09,0,0,0,.78-58.65L586.27,397.86l-56.51,18.42Z" transform="translate(-128.75 -30)"/><path class="cls-11" d="M538.5,491.83c.33-.07,1.62,4.57,2.89,10.37s2,10.56,1.71,10.63-1.62-4.57-2.89-10.37S538.17,491.9,538.5,491.83Z" transform="translate(-128.75 -30)"/><path class="cls-11" d="M529.56,453.42c.16,0,.92,2.1,1.94,5.63s2.29,8.43,3.48,13.9,2.08,10.47,2.62,14.1.75,5.89.58,5.92-.67-2.19-1.43-5.77c-.84-4-1.85-8.75-3-14s-2.23-9.95-3.13-13.95C529.86,455.69,529.4,453.47,529.56,453.42Z" transform="translate(-128.75 -30)"/><path class="cls-11" d="M534.92,446.31c-.13-.07,1.17-1.14,3.39-.36a3.94,3.94,0,0,1,2.53,3,4.34,4.34,0,0,1-1.89,4.42,4.2,4.2,0,0,1-4.79-.47,3.55,3.55,0,0,1-1.08-3.77,3.5,3.5,0,0,1,1.56-2.08c.54-.31.9-.3.91-.24s-1.27.65-1.64,2.52a2.72,2.72,0,0,0,1,2.71,3.16,3.16,0,0,0,3.45.29,3.3,3.3,0,0,0,1.41-3.2,3.13,3.13,0,0,0-1.77-2.38C536.25,445.9,535,446.51,534.92,446.31Z" transform="translate(-128.75 -30)"/><path class="cls-11" d="M651,609.46c-.25.28-4.95-4.05-11.7-7.94s-12.81-5.87-12.69-6.23,6.42,1.15,13.3,5.18S651.25,609.27,651,609.46Z" transform="translate(-128.75 -30)"/><path class="cls-2" d="M470.83,168.87,423,192,443.6,336l-8.1,64.64a25.22,25.22,0,0,0,8.44,22.15h0l77.3-1.52,54.13-29.76,24.86-4.2-10.18-49.2,4.56-69.79,56.58,30.21a19.73,19.73,0,0,0,14.22,1.69l103.73-26.83-5.39-40L669.84,244l-71.51-63.19-53.23-12-9.49-15.68H481.15l-3.81,2.86a11.34,11.34,0,0,0-3.93,5.39Z" transform="translate(-128.75 -30)"/><path class="cls-2" d="M423,192s-15.7,9.94-21.55,28.11c-5.47,17-17.82,85.7-17.82,85.7l-54.38-33.74L297.88,305l72.5,63.93a36.84,36.84,0,0,0,40.36,5.56h0a36.82,36.82,0,0,0,20.53-28.21l8.9-65.16Z" transform="translate(-128.75 -30)"/><polygon class="cls-8" points="457.52 367.86 454.16 362.91 418.37 369.52 411.78 384.77 457.52 367.86"/><path class="cls-2" d="M443.94,422.77c32,12.87,66.13,8.14,96.59-8,9.19-4.87,17.72-10.93,27-15.73s19.48-8.35,29.86-7.63,20.86,6.46,25,16,0,22.53-9.77,26.09L616,436.6c14.36-6.68,21.16-26,14.16-40.23-5.37-10.89-16.66-17.38-24.94-26.28-12.16-13.08-13.43-38.4-13.5-58.1" transform="translate(-128.75 -30)"/><path class="cls-9" d="M557.59,374.72a131.13,131.13,0,0,1-35.4,14.82,127.73,127.73,0,0,1-15.42,2.94c-2.22.34-4.24.45-6,.61s-3.29.22-4.54.24a24.75,24.75,0,0,1-3.88,0,25.32,25.32,0,0,1,3.85-.44c1.24-.08,2.76-.21,4.51-.44s3.76-.39,5.95-.78a144,144,0,0,0,15.26-3.17,139.48,139.48,0,0,0,35.1-14.7,143.15,143.15,0,0,0,13-8.66c1.82-1.28,3.34-2.59,4.73-3.68s2.55-2.08,3.48-2.9a24,24,0,0,1,3-2.44,23.23,23.23,0,0,1-2.69,2.79c-.89.88-2,1.93-3.36,3.07s-2.85,2.51-4.65,3.85" transform="translate(-128.75 -30)"/><path class="cls-9" d="M467.69,434.5c-.07.11-1.86-.89-4.25-3.17a32.48,32.48,0,0,1-9.75-23.19c0-3.3.59-5.28.71-5.26s0,2,.15,5.24a36.57,36.57,0,0,0,9.5,22.61C466.22,433.1,467.82,434.34,467.69,434.5Z" transform="translate(-128.75 -30)"/><path class="cls-9" d="M466,416.32c.35.09-.3,3.09,0,6.77s1.43,6.53,1.11,6.68-2-2.63-2.32-6.58S465.7,416.2,466,416.32Z" transform="translate(-128.75 -30)"/><path class="cls-9" d="M443,332.72a3.82,3.82,0,0,1-.28-1.09l-.58-3.18c-.5-2.95-1.16-6.9-2-11.69-1.64-9.88-4-23.52-6.76-38.53s-5.55-28.58-7.58-38.39c-1-4.76-1.79-8.68-2.39-11.62-.24-1.25-.44-2.3-.6-3.16a3.45,3.45,0,0,1-.13-1.13A4.39,4.39,0,0,1,423,225c.22.85.49,1.88.82,3.12.7,2.71,1.65,6.66,2.77,11.54,2.24,9.76,5.12,23.31,7.93,38.34s5,28.71,6.42,38.62c.71,5,1.25,9,1.58,11.77.14,1.27.25,2.33.35,3.2A3.88,3.88,0,0,1,443,332.72Z" transform="translate(-128.75 -30)"/><path class="cls-9" d="M592.39,332.72a4.32,4.32,0,0,1-.12-1.15c0-.9-.06-2-.1-3.32-.07-2.88-.08-7,0-12.19.1-10.3.54-24.53,1.74-40.2s2.76-29.81,4-40c.63-5,1.15-9,1.53-12.09.2-1.31.35-2.39.49-3.28a3.57,3.57,0,0,1,.25-1.13,4.65,4.65,0,0,1,0,1.16c-.07.89-.15,2-.26,3.3-.28,3.06-.67,7.16-1.14,12.14-1,10.24-2.45,24.38-3.63,40s-1.78,29.84-2.09,40.13c-.14,5-.26,9.11-.34,12.18,0,1.32-.1,2.41-.13,3.31A4.52,4.52,0,0,1,592.39,332.72Z" transform="translate(-128.75 -30)"/><path class="cls-9" d="M405.69,338.74c-.41.18-3.48-8.33-9.44-17.57S383.3,306.1,383.6,305.79c.1-.11,1.93,1.22,4.58,3.73a63,63,0,0,1,9.09,11,75.57,75.57,0,0,1,6.56,12.65C405.19,336.52,405.84,338.68,405.69,338.74Z" transform="translate(-128.75 -30)"/><path class="cls-9" d="M409.71,328.59c-.19.08-1-1.78-2.62-4.54A36.5,36.5,0,0,0,399,314.6a51.5,51.5,0,0,0-10.69-6.51c-2.92-1.36-4.79-2.12-4.73-2.3s2,.33,5.07,1.51a41.63,41.63,0,0,1,11.12,6.36,31.63,31.63,0,0,1,8,10C409.32,326.57,409.83,328.55,409.71,328.59Z" transform="translate(-128.75 -30)"/><g class="cls-12"><path d="M498.65,394.6c-2.22.95-2,4.51-.15,6s4.52,1.6,6.93,1.48a90.12,90.12,0,0,0,69.18-38.85c-21.11,17.32-48.8,23.86-75.43,29.89" transform="translate(-128.75 -30)"/></g><g class="cls-12"><path d="M494.49,370.78c-2.3-3.53-.75-8.47,2.21-11.45s7-4.56,10.79-6.43A68.17,68.17,0,0,0,539,320.6c4.24-9.2,7.46-20.48,16.85-24.26-4.79,32.42-28.93,61.22-60,71.59" transform="translate(-128.75 -30)"/></g><g class="cls-12"><path d="M428.2,249.72A237.11,237.11,0,0,1,422.83,326c-1.26,5.3-2.7,10.64-2.61,16.08s3.48,11.75,7.77,15.1c3.88-8.93,3.95-17.54,5.58-27.17,1.47-8.67,3.94-28.9,3.94-29.2.35-17.72-3.84-32.88-10.64-48.83" transform="translate(-128.75 -30)"/></g><g class="cls-12"><path d="M599.53,227.83c-.47.94,14.54,51.56,14.54,51.56L594.61,268.3Z" transform="translate(-128.75 -30)"/></g><path class="cls-6" d="M478.67,81v80.6a19.51,19.51,0,0,0,4.59,12.58h0c4.55,5.4,10,14.61,16.18,18.07l2.83,1.6a21.58,21.58,0,0,0,24.93-2.7l1.95-1.75c4-3.53,6.3-13.18,6.51-18.48.23-5.87.23-11.79.23-11.79s22.78-1.63,24.92-24.1c1-10.57,1.33-32.21,1.38-52.17a43.71,43.71,0,0,0-40.1-43.7l-.65-.05A41.76,41.76,0,0,0,478.67,81Z" transform="translate(-128.75 -30)"/><path class="cls-7" d="M535.89,159.1s-14.25-.34-28.57-11.08c0,0,5.9,17,28.51,16.88Z" transform="translate(-128.75 -30)"/><path class="cls-9" d="M555.54,97.23a3.23,3.23,0,0,1-3.36,3,3.08,3.08,0,0,1-3.07-3.17,3.22,3.22,0,0,1,3.36-3A3.08,3.08,0,0,1,555.54,97.23Z" transform="translate(-128.75 -30)"/><path class="cls-9" d="M556.45,91.85c-.43.39-2.72-1.61-6.17-1.89s-6.13,1.24-6.47.79c-.17-.2.29-.93,1.47-1.64A8.88,8.88,0,0,1,550.5,88a8.53,8.53,0,0,1,4.87,2C556.37,90.9,556.66,91.68,556.45,91.85Z" transform="translate(-128.75 -30)"/><path class="cls-9" d="M522.94,95.59a3.22,3.22,0,0,1-3.36,3,3.08,3.08,0,0,1-3.07-3.17,3.23,3.23,0,0,1,3.36-3A3.08,3.08,0,0,1,522.94,95.59Z" transform="translate(-128.75 -30)"/><path class="cls-9" d="M522.43,89.69c-.44.38-2.72-1.62-6.18-1.9s-6.13,1.25-6.47.79c-.17-.2.3-.92,1.47-1.64a8.81,8.81,0,0,1,5.22-1.14,8.5,8.5,0,0,1,4.88,2C522.34,88.73,522.64,89.52,522.43,89.69Z" transform="translate(-128.75 -30)"/><path class="cls-9" d="M532.85,116.36c0-.2,2.18-.4,5.69-.55.89,0,1.74-.13,1.94-.72a4.51,4.51,0,0,0-.37-2.66c-.65-2.21-1.34-4.52-2.05-6.94-2.84-9.87-4.81-17.95-4.41-18.06s3,7.8,5.85,17.67q1,3.65,1.94,7a5.13,5.13,0,0,1,.17,3.5,2.2,2.2,0,0,1-1.56,1.17,5.8,5.8,0,0,1-1.51.09C535,116.72,532.84,116.55,532.85,116.36Z" transform="translate(-128.75 -30)"/><path class="cls-9" d="M522.48,117.9c.56,0,.26,3.77,3.25,6.7s7,2.85,7,3.37c0,.24-1,.66-2.64.56a9.36,9.36,0,0,1-5.86-2.6,8.14,8.14,0,0,1-2.49-5.59C521.73,118.76,522.22,117.86,522.48,117.9Z" transform="translate(-128.75 -30)"/><path class="cls-9" d="M524.44,76.22c-.42.91-3.83.18-7.93.33s-7.46,1-7.93.1c-.21-.42.43-1.26,1.83-2.06a13.8,13.8,0,0,1,12.09-.33C523.94,75,524.62,75.78,524.44,76.22Z" transform="translate(-128.75 -30)"/><path class="cls-9" d="M556,81.75c-.67.73-3-.28-5.85-.56s-5.33.09-5.82-.77c-.21-.42.24-1.18,1.36-1.83a8.52,8.52,0,0,1,9.4,1.07C556,80.55,556.31,81.39,556,81.75Z" transform="translate(-128.75 -30)"/><path class="cls-9" d="M505.13,58.33l-.13.09a17.73,17.73,0,0,0-7.53,10.9c0,.15-.07.3-.1.45-1.41,6.34-1.79,12.88-3.26,19.2s-1.2,11.17-7.54,12.59A8.44,8.44,0,0,1,477.74,98a5.49,5.49,0,0,1-.55-3c.08-15.59-3.05-21.64-1.69-37.83a13.72,13.72,0,0,1,6.59-10.65c3.59-2.15,7.94-4.32,11.56-2.23s7.92,9.56,10.6,12.79" transform="translate(-128.75 -30)"/><path class="cls-8" d="M485.41,91.78c-.37-.2-15.08-5.85-15.86,9.56s14.86,13,14.91,12.58S485.41,91.78,485.41,91.78Z" transform="translate(-128.75 -30)"/><path class="cls-7" d="M480,107.84c-.06,0-.27.18-.74.36a2.65,2.65,0,0,1-2-.06c-1.6-.68-2.84-3.33-2.77-6.11a8.75,8.75,0,0,1,1-3.81,3.08,3.08,0,0,1,2.12-2,1.36,1.36,0,0,1,1.55.82c.18.44.07.74.15.77s.34-.24.25-.88a1.77,1.77,0,0,0-.55-1,2.07,2.07,0,0,0-1.47-.47,3.78,3.78,0,0,0-2.93,2.25,9.22,9.22,0,0,0-1.15,4.25c-.05,3.11,1.39,6.1,3.58,6.86a2.91,2.91,0,0,0,2.48-.29C480,108.22,480.1,107.88,480,107.84Z" transform="translate(-128.75 -30)"/><path class="cls-9" d="M492.94,46.6c-3.28-6.47,7.82-14.44,15.61-16.2s17.47,2.76,24.82,5.89c4.63,2,9.2,4.57,14.23,4.78,3.38.14,6.69-.82,10-1.68s6.65-1.63,10-1.13,6.65,2.58,7.67,5.8-1.16,7.34-4.54,7.53c4.45-2,10.35,1.6,10.65,6.46s-5.13,9.13-9.79,7.7c2.32-1.47,5.45,1.54,5,4.25s-3.13,4.49-5.74,5.38c-6.64,2.29-14,.77-20.5-2s-12.31-6.78-18.69-9.72-17-8.16-23.85-6.38c-5,1.32-8.87,6.89-11.51,5.37a9.41,9.41,0,0,1-4.29-7.31,27.28,27.28,0,0,1,1-8.73" transform="translate(-128.75 -30)"/><path class="cls-13" d="M545,536.06s-1.18.05-3.48.09l-10.19.15c-9,.14-22.18.48-39.18,1.31s-37.77,2.38-61.79,5.13c-12,1.44-24.82,3.09-38.34,5.33s-27.77,4.86-42.6,8.24-30.26,7.4-46,12.55-31.94,11.36-47.74,19.69a155.36,155.36,0,0,0-22.89,14.63c-7.22,5.66-14,12.31-18.75,20.5-.57,1-1.18,2.05-1.72,3.1l-1.32,3.29-.66,1.65c-.18.56-.29,1.15-.44,1.72l-.83,3.47c-.55,4.7-.72,9.6.7,14.25,2.28,9.46,8.53,17.62,15.69,24.48C240,689.38,258.68,698.94,278,707s40.09,14.21,61.33,19.4c42.52,10.36,87.59,16.46,133.87,19.72a1064.34,1064.34,0,0,0,135.44.53c43.69-2.66,85.7-8,125-16.32A529.13,529.13,0,0,0,790.4,715a281.84,281.84,0,0,0,50.68-22.08,138.75,138.75,0,0,0,21.36-15.22c6.4-5.69,12-12.21,15.47-19.69l1.15-2.85a15.09,15.09,0,0,0,1-2.88l.71-3a14.85,14.85,0,0,0,.33-1.47l.12-1.5a29.53,29.53,0,0,0-.87-11.78A41.64,41.64,0,0,0,875.4,624a65,65,0,0,0-7.23-8.88,109.12,109.12,0,0,0-17.09-14.09A181.83,181.83,0,0,0,833,590.26a316.11,316.11,0,0,0-35.32-15.72,530.65,530.65,0,0,0-59.21-18.25c-16.51-4.13-29.47-6.73-38.27-8.41-4.39-.88-7.76-1.44-10-1.87s-3.41-.66-3.41-.66,4.66.68,13.48,2.29,21.8,4.13,38.34,8.19a523.05,523.05,0,0,1,59.33,18.08,313.75,313.75,0,0,1,35.44,15.67,181.68,181.68,0,0,1,18.21,10.81,109.86,109.86,0,0,1,17.25,14.16,65.08,65.08,0,0,1,7.35,9,42.34,42.34,0,0,1,5.06,10.77,30.37,30.37,0,0,1,.93,12.13L882,648c-.08.51-.23,1-.34,1.51l-.73,3a15.87,15.87,0,0,1-1,3l-1.17,2.91c-3.53,7.66-9.22,14.27-15.68,20a138.56,138.56,0,0,1-21.5,15.36A282,282,0,0,1,790.74,716a530,530,0,0,1-56.8,15.38c-39.41,8.41-81.47,13.73-125.21,16.41a1063.1,1063.1,0,0,1-135.6-.51c-46.33-3.26-91.46-9.37-134.06-19.77-21.29-5.21-42-11.45-61.49-19.48s-38.16-17.67-53-31.59c-7.24-7-13.62-15.26-16-25-1.46-4.79-1.29-9.86-.71-14.7l.86-3.57c.15-.59.27-1.19.45-1.77l.69-1.7,1.36-3.37c.55-1.08,1.17-2.11,1.75-3.17,4.84-8.36,11.75-15.08,19-20.79a157.12,157.12,0,0,1,23.07-14.7C271,579.3,287.27,573.15,303.06,568s31.28-9.15,46.14-12.5,29.12-6,42.67-8.16,26.37-3.84,38.38-5.25c24.05-2.68,44.84-4.11,61.85-4.92s30.23-1,39.2-1.09l10.19,0C543.79,536,545,536.06,545,536.06Z" transform="translate(-128.75 -30)"/><path class="cls-13" d="M354.16,359.16s-1.32.3-3.92.82-6.48,1.24-11.54,2.33c-10.12,2.11-25,5.35-44,10.53s-42,12.28-67.4,23.83c-6.33,2.91-12.81,6.09-19.28,9.77a181.24,181.24,0,0,0-19.36,12.41,106.82,106.82,0,0,0-17.86,16.43c-5.31,6.34-10,13.72-12.11,22.2a40.7,40.7,0,0,0,1.92,26.15c3.45,8.47,9.31,16,16.16,22.61,13.82,13.25,31.36,23.29,50,31.93,37.6,17.09,80.55,28.55,126.13,37.1s94.22,13.69,144.7,16a1247.13,1247.13,0,0,0,156.3-2.78c53.39-4.45,105.33-12.29,154.21-25.13,24.41-6.47,48.07-14.2,70.24-24.12a240.24,240.24,0,0,0,31.73-16.93c9.94-6.44,19.26-13.75,26.74-22.56s12.93-19.39,13.25-30.64a26.35,26.35,0,0,0-.14-4.17,28.48,28.48,0,0,0-.44-4.14l-.91-4.05a30.14,30.14,0,0,0-1.33-3.92c-1.81-5.23-4.88-9.87-8-14.32-6.7-8.65-15-15.73-23.68-21.88a215.83,215.83,0,0,0-27.11-15.85A382.67,382.67,0,0,0,833,379c-18.29-5.73-36.13-10.26-53.27-14.06C711,350.07,654,346,614.82,343.87c-19.63-1-34.88-1.07-45.23-1.33l-11.76-.25c-2.65-.07-4-.13-4-.13s1.36,0,4,0l11.77.14c10.34.18,25.61.15,45.24,1.09,39.19,2,96.2,5.93,165,20.66,17.17,3.78,35,8.29,53.37,14a385.16,385.16,0,0,1,55.7,21.79,216.39,216.39,0,0,1,27.26,15.9c8.72,6.18,17.13,13.31,23.93,22.08,3.2,4.52,6.32,9.23,8.18,14.59a28.25,28.25,0,0,1,1.36,4l.94,4.16a28.49,28.49,0,0,1,.46,4.24,27.93,27.93,0,0,1,.15,4.29,43.46,43.46,0,0,1-4.05,16.7,62.16,62.16,0,0,1-9.45,14.63c-7.58,8.93-17,16.3-27,22.79a242,242,0,0,1-31.87,17c-22.25,10-46,17.72-70.41,24.21-49,12.88-101,20.74-154.42,25.19a1243.89,1243.89,0,0,1-156.46,2.76c-50.52-2.29-99.14-7.55-144.85-16s-88.64-20.1-126.35-37.28c-18.71-8.69-36.32-18.78-50.25-32.18-6.91-6.68-12.84-14.31-16.35-22.94a41.69,41.69,0,0,1-1.92-26.7c2.16-8.65,6.95-16.12,12.32-22.52a107.48,107.48,0,0,1,18-16.52,182.35,182.35,0,0,1,19.46-12.42c6.5-3.68,13-6.86,19.36-9.76,25.48-11.51,48.62-18.46,67.55-23.67s33.93-8.28,44.07-10.31S354.16,359.16,354.16,359.16Z" transform="translate(-128.75 -30)"/><path class="cls-13" d="M436,711.5l-11.65,1.84c-7.63,1.22-18.87,3.16-33.21,6.29a424.06,424.06,0,0,0-51.44,14.5,241.55,241.55,0,0,0-30.58,13.29,133.73,133.73,0,0,0-15.52,9.49,80.78,80.78,0,0,0-14.27,12.71,46.24,46.24,0,0,0-5.63,8.12,32.06,32.06,0,0,0-3.48,9.44c-.13.84-.33,1.67-.41,2.52l-.15,2.57c0,1.72.22,3.44.37,5.17.46,1.67.71,3.42,1.34,5.06l1,2.46.49,1.23.66,1.16c3.35,6.29,8.38,11.73,14,16.51a115.46,115.46,0,0,0,18.81,12.62c13.47,7.51,28.42,13.29,44,18.38a458.9,458.9,0,0,0,49.08,12.55c34,6.84,70.29,11.05,108,12.9a880.16,880.16,0,0,0,116.78-2c39.88-3.45,78.67-9.56,115-19.82,18.12-5.23,35.67-11.48,51.83-19.75a129.71,129.71,0,0,0,22.54-14.56c1.78-1.32,3.28-3,4.92-4.42s3-3.23,4.46-4.82c2.63-3.46,5.18-7,6.64-11.1,3.47-8,2.61-17.12-1-24.62-3.81-7.51-9.73-13.6-16.08-18.73-12.85-10.22-27.46-17.1-41.73-22.83A352.09,352.09,0,0,0,728.33,724c-13.87-3.58-27.33-6.4-40.25-8.67-51.75-9-94.37-10.69-123.68-11.31l-45.59-.25s16.23-.21,45.6,0c29.32.54,72,2.11,123.76,11.1,12.93,2.25,26.41,5,40.3,8.63A351.7,351.7,0,0,1,771,737.06c14.31,5.74,29,12.62,41.91,22.91,6.4,5.15,12.39,11.3,16.27,18.93,3.72,7.63,4.61,17,1.07,25.15-1.5,4.14-4.08,7.78-6.74,11.29-1.51,1.61-2.89,3.36-4.51,4.87s-3.17,3.13-5,4.46a130.2,130.2,0,0,1-22.66,14.66c-16.22,8.31-33.8,14.58-51.95,19.81C703.05,869.43,664.22,875.55,624.3,879a879.89,879.89,0,0,1-116.88,2c-37.74-1.87-74-6.09-108.09-13a455.31,455.31,0,0,1-49.14-12.59c-15.64-5.1-30.61-10.91-44.12-18.46a116.24,116.24,0,0,1-18.9-12.7c-5.68-4.82-10.76-10.31-14.15-16.7l-.66-1.18-.51-1.25-1-2.49a51.5,51.5,0,0,1-1.35-5.16c-.16-1.76-.37-3.52-.38-5.27l.16-2.61c.08-.87.28-1.72.42-2.57a32.49,32.49,0,0,1,3.54-9.59,47.52,47.52,0,0,1,5.71-8.21,81.24,81.24,0,0,1,14.37-12.77,134.91,134.91,0,0,1,15.59-9.5,239.92,239.92,0,0,1,30.67-13.26,418.85,418.85,0,0,1,51.51-14.39c14.36-3.1,25.61-5,33.25-6.17S436,711.5,436,711.5Z" transform="translate(-128.75 -30)"/><path class="cls-13" d="M740.89,925A24.07,24.07,0,0,0,739,916.5c-2.17-5.35-8-12-17.09-18-18.35-12.07-49-22.21-87.63-28.41a531.15,531.15,0,0,0-63.69-6.24,612.35,612.35,0,0,0-73.45,1.35c-12.9,1-26.09,2.51-39.47,4.64a375.64,375.64,0,0,0-40.54,8.55c-6.8,1.83-13.58,3.95-20.3,6.41A164.75,164.75,0,0,0,377,893.41a80,80,0,0,0-18,12.43c-5.3,4.95-9.62,11.66-9.72,19.15.09,7.49,4.4,14.2,9.7,19.16a79.86,79.86,0,0,0,18,12.44,161.62,161.62,0,0,0,19.81,8.64c6.72,2.47,13.51,4.59,20.3,6.42a376.39,376.39,0,0,0,40.55,8.56c13.39,2.13,26.58,3.62,39.48,4.64a612.35,612.35,0,0,0,73.45,1.35,535.26,535.26,0,0,0,63.7-6.24c38.61-6.2,69.27-16.35,87.62-28.42,9.13-6,14.92-12.67,17.09-18a24,24,0,0,0,1.94-8.5c0,.35-.07.94-.16,2.23a12.35,12.35,0,0,1-.48,2.7,17.57,17.57,0,0,1-1.21,3.61c-2.15,5.39-7.94,12.09-17.08,18.15-18.35,12.15-49,22.35-87.66,28.6a533.32,533.32,0,0,1-63.74,6.3,610.8,610.8,0,0,1-73.5-1.31c-12.92-1-26.12-2.5-39.52-4.62a374.84,374.84,0,0,1-40.6-8.56c-6.81-1.83-13.61-4-20.34-6.42A162.76,162.76,0,0,1,376.72,957a80.45,80.45,0,0,1-18.07-12.52,35.44,35.44,0,0,1-6.88-8.74,21,21,0,0,1,0-21.54,35.37,35.37,0,0,1,6.89-8.73A80.28,80.28,0,0,1,376.75,893a164.12,164.12,0,0,1,19.87-8.66c6.73-2.47,13.53-4.59,20.33-6.42a377.17,377.17,0,0,1,40.6-8.55c13.39-2.13,26.59-3.61,39.51-4.63a610.52,610.52,0,0,1,73.49-1.3,531.26,531.26,0,0,1,63.74,6.3c38.63,6.25,69.31,16.45,87.67,28.6,9.13,6,14.93,12.75,17.08,18.14a17.77,17.77,0,0,1,1.21,3.61,12.53,12.53,0,0,1,.48,2.71C740.82,924.06,740.86,924.66,740.89,925Z" transform="translate(-128.75 -30)"/><path class="cls-13" d="M225.05,562.88a7.46,7.46,0,1,1-7.46-7.46A7.46,7.46,0,0,1,225.05,562.88Z" transform="translate(-128.75 -30)"/><circle class="cls-13" cx="762.99" cy="537.93" r="7.45"/><path class="cls-13" d="M595.15,842.6a7.45,7.45,0,1,1-7.45-7.46A7.44,7.44,0,0,1,595.15,842.6Z" transform="translate(-128.75 -30)"/><path class="cls-13" d="M368.79,651a3.73,3.73,0,1,1-3.72-3.73A3.73,3.73,0,0,1,368.79,651Z" transform="translate(-128.75 -30)"/><path class="cls-13" d="M832.28,741.36a3.73,3.73,0,1,1-3.72-3.72A3.72,3.72,0,0,1,832.28,741.36Z" transform="translate(-128.75 -30)"/><path class="cls-13" d="M538.06,913.74a3.73,3.73,0,1,1-3.73-3.72A3.73,3.73,0,0,1,538.06,913.74Z" transform="translate(-128.75 -30)"/><path class="cls-1" d="M687.45,533.85c-90.1,25.5-177.37,25.16-272.83,4.63L400.57,364.86c98.57,17.46,197.17,13.37,283.86-8.93Z" transform="translate(-128.75 -30)"/><path class="cls-3" d="M677.43,547.94c-90.52,24-177.78,22.15-272.87,0L393.45,374.11c98.27,19.13,196.92,16.71,284-4.11Z" transform="translate(-128.75 -30)"/><path class="cls-2" d="M436.44,495.38c0-.19,2.88.18,8,1s12.48,2,21.61,3.28a622.06,622.06,0,0,0,71.76,5.75,618.72,618.72,0,0,0,71.94-2.86c9.18-.9,16.6-1.75,21.72-2.4s8-.88,8-.69-2.76.8-7.85,1.75-12.48,2.12-21.66,3.27a510.9,510.9,0,0,1-72.22,3.68,512.13,512.13,0,0,1-72-6.58c-9.13-1.53-16.48-3-21.52-4.15S436.4,495.56,436.44,495.38Z" transform="translate(-128.75 -30)"/><path class="cls-2" d="M436.44,509.39c0-.19,2.88.18,8,1s12.48,2,21.61,3.28a622.06,622.06,0,0,0,71.76,5.75,621,621,0,0,0,71.94-2.86c9.18-.9,16.6-1.75,21.72-2.4s8-.88,8-.7-2.76.81-7.85,1.76-12.48,2.11-21.66,3.27a513.93,513.93,0,0,1-72.22,3.68,510.44,510.44,0,0,1-72-6.59c-9.13-1.52-16.48-3-21.52-4.14S436.4,509.57,436.44,509.39Z" transform="translate(-128.75 -30)"/><path class="cls-2" d="M571.8,448.79a33.86,33.86,0,0,1-67.71,0c0-.51,0-1,0-1.52l14.21,14.2a15.08,15.08,0,0,0,21.33,0L568,433.15a33.73,33.73,0,0,1,3.82,15.64" transform="translate(-128.75 -30)"/><path class="cls-2" d="M560.05,423.15,532.22,451a4.56,4.56,0,0,1-6.45,0l-17.85-17.85a33.85,33.85,0,0,1,52.13-10" transform="translate(-128.75 -30)"/><path class="cls-1" d="M135.75,225.81l29.37,179s44.4,84.47,164.42,103.53l-18.6-159.7S200.17,314.34,135.75,225.81Z" transform="translate(-128.75 -30)"/><path class="cls-2" d="M128.75,237.49l29.36,179S202.51,500.94,322.54,520L303.93,360.29S193.17,326,128.75,237.49Z" transform="translate(-128.75 -30)"/><path class="cls-3" d="M252.17,446a1,1,0,0,0,1.24-1,1.42,1.42,0,0,0-.91-1.56,20.85,20.85,0,0,1-3.9-1.34,4.48,4.48,0,0,1-2.19-1.89c-1-3.09-8.46-18.38-10.4-20.84a111.13,111.13,0,0,0,9-15.68l1.38-.3a105.15,105.15,0,0,0,11,2.29c3.93.81,5.55.38,15.81,10.05q1,12.78.73,25.89l-.83.16-1.75.38a1.51,1.51,0,0,0-.87,1.73c.11.83.67,1.41,1.25,1.29l1.71-.33,1.61-.26c.54,0,1-.66,1-1.48l-1.08-.1,1.07.1a270.69,270.69,0,0,0-.78-28.28,1.75,1.75,0,0,0-.48-1.22c-.19.42-.39.85-.59,1.27.2-.42.4-.85.59-1.27-11.07-10.33-12.8-9.78-17.1-10.58a94.74,94.74,0,0,1-10.89-2,.94.94,0,0,0-.5,0h0l-2,.49a1.21,1.21,0,0,0-.9.7l.93.47-.93-.46a108.84,108.84,0,0,1-9.51,16.51,1,1,0,0,0-.09,1.16l.93-.53-.92.53c.22-.55,9.55,17.52,10.67,21.27a7.25,7.25,0,0,0,3.38,3.22,23.14,23.14,0,0,0,4.29,1.61" transform="translate(-128.75 -30)"/><path class="cls-3" d="M254.54,405.12a1.5,1.5,0,0,0,.07-1.83.92.92,0,0,0-1.49,0c0,.37-9.54,10-4.73,14.8h0a.39.39,0,0,0,.1.08c2,1.95,4.18,1.21,6.58.26,3.34-1.22,7.44-3.35,10.56,9.05h0a2.25,2.25,0,0,0,.08.24c.51,1.12,4.32,14.59,4.1,17.67a3.22,3.22,0,0,1-.4,1.47,1.66,1.66,0,0,1-.84.78,1.44,1.44,0,0,1-1.23-.17,6.19,6.19,0,0,1-2.06-2.3q-1.93-7.68-4.26-14.71a1,1,0,0,0-1.42-.76,1.45,1.45,0,0,0-.57,1.75q2.33,7,4.25,14.71a1.7,1.7,0,0,0,.18.49h0a9.49,9.49,0,0,0,3.1,3.56,3,3,0,0,0,2.61.35,3.75,3.75,0,0,0,1.95-1.76,6.91,6.91,0,0,0,.84-3.15c.26-3.76-3.84-18.15-4.31-19.07-3.89-15.15-9.07-12.2-13.26-10.58-1.78.74-3.42,1.36-4.51.33l0,0h0l0,0c-3-3.06,4.74-11,4.71-11.18" transform="translate(-128.75 -30)"/><path class="cls-3" d="M255.39,433.66a1,1,0,0,0-1.42-.72,1.35,1.35,0,0,0-.54,1.67q2.17,6,4.06,12.55a6.93,6.93,0,0,0,2.29,3.33,3.74,3.74,0,0,0,2,.84,2.48,2.48,0,0,0,2.09-.88,7.61,7.61,0,0,0,1.54-4.36,1.53,1.53,0,0,0-.92-1.69c-.59-.14-1.13.38-1.22,1.15a4.77,4.77,0,0,1-.83,2.64.85.85,0,0,1-.68.3,1.83,1.83,0,0,1-.94-.4,3.51,3.51,0,0,1-1.26-1.72Q257.62,439.73,255.39,433.66Z" transform="translate(-128.75 -30)"/><path class="cls-3" d="M251.26,437.6a1.1,1.1,0,0,0-1.39-.82,1.22,1.22,0,0,0-.62,1.55c.92,2.83,1.8,5.76,2.62,8.78l1-.3-1,.3a1.58,1.58,0,0,0,.19.44c.52.85,3.93,7.23,7.49.5a1.7,1.7,0,0,0-.35-1.95.93.93,0,0,0-1.49.33c-1.74,3.34-3.46.53-3.83-.11C253.06,443.33,252.18,440.42,251.26,437.6Z" transform="translate(-128.75 -30)"/><path class="cls-3" d="M243.83,398.91a87.45,87.45,0,0,0-8.38-3.48,1,1,0,0,0-.79.08h0a1.33,1.33,0,0,0-.61.63,97.23,97.23,0,0,1-10.76,18.12.8.8,0,0,0-.16.67h0a.78.78,0,0,0,.45.53q4,2,8,4.54a1.14,1.14,0,0,0,.8.17h0a1,1,0,0,0,.69-.41,108.46,108.46,0,0,0,11.22-19.3,1.32,1.32,0,0,0,.08-.91h0a1,1,0,0,0-.52-.63m-7.46-5.58a87.94,87.94,0,0,1,8.42,3.37,3,3,0,0,1,1.56,1.93h0a4.09,4.09,0,0,1-.23,2.76,110.76,110.76,0,0,1-11.31,19.51,3.11,3.11,0,0,1-2.08,1.23h0a3.45,3.45,0,0,1-2.39-.53,90.18,90.18,0,0,0-7.94-4.63,2.52,2.52,0,0,1-1.34-1.59h0a2.26,2.26,0,0,1,.47-1.95,95.61,95.61,0,0,0,10.68-17.91,4.23,4.23,0,0,1,1.8-1.91h0a2.91,2.91,0,0,1,2.36-.28" transform="translate(-128.75 -30)"/><path class="cls-3" d="M275.75,408.53q4.75-1,9.48-2.16a2.38,2.38,0,0,1,2.39.95,6.16,6.16,0,0,1,1.31,3.41,302,302,0,0,1,1.42,35.11,6.75,6.75,0,0,1-1,3.67,2.61,2.61,0,0,1-2.34,1.34q-4.89-.48-9.78-1.06a3.15,3.15,0,0,1-2.23-1.66,6.43,6.43,0,0,1-.86-3.43,266.84,266.84,0,0,0-1.05-31,6.2,6.2,0,0,1,.61-3.38,3.31,3.31,0,0,1,2.09-1.82m9.84,1.16q-4.75,1-9.52,1.93a1.1,1.1,0,0,0-.7.6,2.14,2.14,0,0,0-.21,1.15,271.75,271.75,0,0,1,1.1,31.52,2.14,2.14,0,0,0,.29,1.15,1.06,1.06,0,0,0,.76.55c3.25.3,6.51.57,9.76.8a.91.91,0,0,0,.78-.46,2.28,2.28,0,0,0,.35-1.22,297.09,297.09,0,0,0-1.38-34.56,2,2,0,0,0-.43-1.12.82.82,0,0,0-.8-.34" transform="translate(-128.75 -30)"/><path class="cls-3" d="M150.08,318.89A19.69,19.69,0,0,1,152.5,321c1.5,1.44,3.69,3.49,6.44,6a241.72,241.72,0,0,0,47.13,33.51c3.25,1.78,5.91,3.18,7.76,4.12a17.56,17.56,0,0,1,2.82,1.59,17.82,17.82,0,0,1-3-1.2c-1.91-.82-4.63-2.12-8-3.82a204.79,204.79,0,0,1-47.29-33.63c-2.69-2.57-4.81-4.71-6.22-6.25A17.38,17.38,0,0,1,150.08,318.89Z" transform="translate(-128.75 -30)"/><path class="cls-3" d="M153.42,338.11a18,18,0,0,1,2.42,2.15c1.5,1.43,3.7,3.49,6.45,6a249.5,249.5,0,0,0,22.55,18.17,250.9,250.9,0,0,0,24.57,15.34c3.26,1.78,5.92,3.18,7.77,4.12a18.85,18.85,0,0,1,2.82,1.59,17.67,17.67,0,0,1-3-1.2c-1.91-.82-4.63-2.12-8-3.82a204.79,204.79,0,0,1-47.29-33.63c-2.69-2.57-4.81-4.72-6.21-6.25A18.81,18.81,0,0,1,153.42,338.11Z" transform="translate(-128.75 -30)"/><path class="cls-3" d="M155.12,357.46a17.31,17.31,0,0,1,2.38,2.11c1.47,1.41,3.62,3.42,6.32,5.87a237.51,237.51,0,0,0,46.23,32.87c3.19,1.75,5.8,3.12,7.62,4a17.46,17.46,0,0,1,2.76,1.56,19.4,19.4,0,0,1-3-1.18c-1.87-.81-4.54-2.08-7.79-3.74a201.38,201.38,0,0,1-46.39-33c-2.64-2.53-4.72-4.63-6.1-6.14A17.15,17.15,0,0,1,155.12,357.46Z" transform="translate(-128.75 -30)"/><path class="cls-3" d="M158.38,374.16a13.79,13.79,0,0,1,2,1.74c1.21,1.17,3,2.83,5.2,4.85a195,195,0,0,0,38.08,27.19c2.63,1.44,4.78,2.57,6.28,3.34a14.69,14.69,0,0,1,2.28,1.28,13.81,13.81,0,0,1-2.43-1c-1.55-.67-3.75-1.72-6.43-3.09a164.7,164.7,0,0,1-38.21-27.28c-2.17-2.09-3.88-3.83-5-5.08A16.16,16.16,0,0,1,158.38,374.16Z" transform="translate(-128.75 -30)"/><path class="cls-3" d="M161.48,387.12a13.41,13.41,0,0,1,1.75,1.55c1.08,1.05,2.66,2.53,4.64,4.34a173.69,173.69,0,0,0,34,24.26c2.35,1.29,4.27,2.3,5.6,3a12.78,12.78,0,0,1,2,1.15,12.74,12.74,0,0,1-2.17-.87c-1.38-.59-3.34-1.53-5.73-2.76a146.59,146.59,0,0,1-34.11-24.35c-1.94-1.86-3.47-3.41-4.48-4.53A13,13,0,0,1,161.48,387.12Z" transform="translate(-128.75 -30)"/><path class="cls-3" d="M162.38,399.93a10.67,10.67,0,0,1,1.38,1.23c.85.82,2.11,2,3.67,3.42A142.32,142.32,0,0,0,180.28,415a140.79,140.79,0,0,0,14,8.77c1.85,1,3.37,1.82,4.42,2.36a9.64,9.64,0,0,1,1.61.9,9.52,9.52,0,0,1-1.71-.68c-1.09-.47-2.64-1.21-4.53-2.18a116.81,116.81,0,0,1-27-19.24c-1.54-1.47-2.74-2.7-3.54-3.58A10.21,10.21,0,0,1,162.38,399.93Z" transform="translate(-128.75 -30)"/><path class="cls-14" d="M911.6,259.85c-3.89-12.59-13.31-30.53-35.73-34.26l-26.5,244.64s49.75-9.93,51.08-37.2c.12-2.36,10.08-123.95,12.56-154C913.56,272.39,913.55,266.17,911.6,259.85Z" transform="translate(-128.75 -30)"/><path class="cls-15" d="M911.6,259.85c-3.7-12.64-13.31-30.53-35.73-34.26l-26.5,244.64s49.75-9.93,51.08-37.2c.12-2.36,1.43-126,12.56-154C915.58,272.51,913.24,265.5,911.6,259.85Z" transform="translate(-128.75 -30)"/><path class="cls-1" d="M910.91,267.84,865.39,444s-37.45,75.44-140.59,78.31l12.75-177.61S860.21,340.85,910.91,267.84Z" transform="translate(-128.75 -30)"/><path class="cls-2" d="M913.8,269.34,899,451.21S855.69,529,736.48,532l14.73-183.12S855.2,344.62,913.8,269.34Z" transform="translate(-128.75 -30)"/><path class="cls-3" d="M907.61,336.6a16.4,16.4,0,0,0-2.79,1.64c-1.74,1.13-4.29,2.73-7.46,4.65a242.49,242.49,0,0,1-52.63,23.95c-3.54,1.13-6.41,2-8.41,2.57a19.17,19.17,0,0,0-3.07,1,17,17,0,0,0,3.18-.6c2-.45,5-1.21,8.52-2.24a204.67,204.67,0,0,0,52.82-24c3.13-2,5.62-3.71,7.29-4.95A19.16,19.16,0,0,0,907.61,336.6Z" transform="translate(-128.75 -30)"/><path class="cls-3" d="M907.61,355.79a18.37,18.37,0,0,0-2.79,1.64c-1.74,1.13-4.29,2.73-7.46,4.65A242.49,242.49,0,0,1,844.73,386c-3.54,1.13-6.41,2-8.41,2.57a19.17,19.17,0,0,0-3.07,1,17,17,0,0,0,3.18-.6c2-.45,5-1.21,8.52-2.24a204.32,204.32,0,0,0,27.27-10.14,206.62,206.62,0,0,0,25.55-13.89c3.13-2,5.62-3.72,7.29-5A19.16,19.16,0,0,0,907.61,355.79Z" transform="translate(-128.75 -30)"/><path class="cls-3" d="M906.9,375a18.81,18.81,0,0,0-2.73,1.61c-1.71,1.11-4.21,2.68-7.32,4.56a237.07,237.07,0,0,1-51.63,23.5c-3.47,1.1-6.29,2-8.25,2.52a17.24,17.24,0,0,0-3,1,18.07,18.07,0,0,0,3.12-.59c2-.44,4.85-1.18,8.36-2.2a201.06,201.06,0,0,0,51.81-23.58c3.07-2,5.51-3.64,7.16-4.86A19,19,0,0,0,906.9,375Z" transform="translate(-128.75 -30)"/><path class="cls-3" d="M900.49,393.52a14.58,14.58,0,0,0-2.26,1.34c-1.41.92-3.46,2.22-6,3.78a194.49,194.49,0,0,1-42.55,19.45c-2.86.92-5.18,1.62-6.8,2.09a14.07,14.07,0,0,0-2.48.83,14.81,14.81,0,0,0,2.57-.49c1.65-.36,4-1,6.9-1.82a165,165,0,0,0,42.7-19.52c2.53-1.64,4.54-3,5.89-4A15.11,15.11,0,0,0,900.49,393.52Z" transform="translate(-128.75 -30)"/><path class="cls-3" d="M897.26,406.36a11.88,11.88,0,0,0-2,1.19c-1.26.82-3.1,2-5.39,3.38a174.59,174.59,0,0,1-38,17.36c-2.55.82-4.62,1.45-6.06,1.86a14.37,14.37,0,0,0-2.22.74,12.76,12.76,0,0,0,2.3-.44c1.46-.32,3.57-.87,6.15-1.62a146.32,146.32,0,0,0,19.68-7.35,148,148,0,0,0,18.43-10.07c2.26-1.47,4.05-2.7,5.26-3.6A14.12,14.12,0,0,0,897.26,406.36Z" transform="translate(-128.75 -30)"/><path class="cls-3" d="M891.63,423.24a11.41,11.41,0,0,0-1.59.95c-1,.64-2.45,1.56-4.26,2.66a136.79,136.79,0,0,1-30,13.72c-2,.65-3.66,1.14-4.8,1.47a9.86,9.86,0,0,0-1.75.59,11.4,11.4,0,0,0,1.82-.35c1.15-.25,2.82-.69,4.86-1.28A116.78,116.78,0,0,0,886,427.23c1.78-1.15,3.2-2.13,4.16-2.84A10.36,10.36,0,0,0,891.63,423.24Z" transform="translate(-128.75 -30)"/><path class="cls-16" d="M802.43,429.45a.78.78,0,0,0,.61.07.84.84,0,0,0,.49-.42q1.82-3.36,3.7-6.72a.83.83,0,0,0-.3-1.13c-2.18-1.22-4.37-2.45-6.59-3.67a.81.81,0,0,0-1.13.33.82.82,0,0,0,.32,1.14l5.85,3.23c-1.11,2-2.2,4-3.27,6a.88.88,0,0,0,.32,1.18" transform="translate(-128.75 -30)"/><path class="cls-3" d="M791.07,433a.78.78,0,0,0,.61.07.86.86,0,0,0,.13-1.55L786,428.29c1-2,2-4,3-6a.84.84,0,0,0-.35-1.14.79.79,0,0,0-1.11.35q-1.72,3.36-3.39,6.73a.87.87,0,0,0,.36,1.14Z" transform="translate(-128.75 -30)"/><path class="cls-16" d="M794.27,432.15a.69.69,0,0,0,.38,0,.88.88,0,0,0,.56-.67q1.18-6,2.45-12.06a.82.82,0,0,0-.63-1,.83.83,0,0,0-1,.65c-.84,4-1.63,8.07-2.4,12.11a.81.81,0,0,0,.63,1" transform="translate(-128.75 -30)"/><path class="cls-3" d="M772.32,404.49a1.78,1.78,0,0,1,2.07,1.28,1.59,1.59,0,0,1-1.19,2,1.78,1.78,0,0,1-2.06-1.28,1.56,1.56,0,0,1,1.18-2" transform="translate(-128.75 -30)"/><path class="cls-17" d="M777.28,403.43a1.77,1.77,0,0,1,2.06,1.28,1.6,1.6,0,0,1-1.22,2,1.75,1.75,0,0,1-2-1.27,1.58,1.58,0,0,1,1.21-2" transform="translate(-128.75 -30)"/><path class="cls-16" d="M782.32,402.36a1.74,1.74,0,0,1,2,1.28,1.62,1.62,0,0,1-1.24,2,1.76,1.76,0,0,1-2-1.27,1.61,1.61,0,0,1,1.25-2" transform="translate(-128.75 -30)"/><path class="cls-18" d="M768.9,456.18q25.8-8.62,54-16.88a2.59,2.59,0,0,0,1.79-2.38q.62-25.31,1.48-50.62a2.34,2.34,0,0,0-3.13-2.16q-27.62,7.64-53.22,15.63a2.23,2.23,0,0,0-1.57,2q-1.79,25.89-2.26,51.88C766,455.32,767.48,456.66,768.9,456.18Z" transform="translate(-128.75 -30)"/><path class="cls-19" d="M767.75,412.4q27.9-7.75,58-15.13" transform="translate(-128.75 -30)"/></svg>