<svg width="32" height="32" viewBox="0 0 32 32" fill="none" xmlns="http://www.w3.org/2000/svg">
<circle cx="16" cy="16" r="16" fill="#012E58"/>
<path d="M24.04 10.8201L18.28 6.79006C16.71 5.69006 14.3 5.75006 12.79 6.92006L7.78 10.8301C6.78 11.6101 5.99 13.2101 5.99 14.4701V21.3701C5.99 23.9201 8.06 26.0001 10.61 26.0001H21.39C23.94 26.0001 26.01 23.9301 26.01 21.3801V14.6001C26.01 13.2501 25.14 11.5901 24.04 10.8201ZM16.75 22.0001C16.75 22.4101 16.41 22.7501 16 22.7501C15.59 22.7501 15.25 22.4101 15.25 22.0001V19.0001C15.25 18.5901 15.59 18.2501 16 18.2501C16.41 18.2501 16.75 18.5901 16.75 19.0001V22.0001Z" fill="white"/>
</svg>
