<svg width="32" height="32" viewBox="0 0 32 32" fill="none" xmlns="http://www.w3.org/2000/svg">
<circle cx="16" cy="16" r="16" fill="#012E58"/>
<path d="M25 26H7C6.59 26 6.25 25.66 6.25 25.25C6.25 24.84 6.59 24.5 7 24.5H25C25.41 24.5 25.75 24.84 25.75 25.25C25.75 25.66 25.41 26 25 26Z" fill="white"/>
<path d="M23.02 7.48004C21.08 5.54004 19.18 5.49004 17.19 7.48004L15.98 8.69004C15.88 8.79004 15.84 8.95004 15.88 9.09004C16.64 11.74 18.76 13.86 21.41 14.62C21.45 14.63 21.49 14.64 21.53 14.64C21.64 14.64 21.74 14.6 21.82 14.52L23.02 13.31C24.01 12.33 24.49 11.38 24.49 10.42C24.5 9.43004 24.02 8.47004 23.02 7.48004Z" fill="white"/>
<path d="M19.61 15.53C19.32 15.39 19.04 15.25 18.77 15.09C18.55 14.96 18.34 14.82 18.13 14.67C17.96 14.56 17.76 14.4 17.57 14.24C17.55 14.23 17.48 14.17 17.4 14.09C17.07 13.81 16.7 13.45 16.37 13.05C16.34 13.03 16.29 12.96 16.22 12.87C16.12 12.75 15.95 12.55 15.8 12.32C15.68 12.17 15.54 11.95 15.41 11.73C15.25 11.46 15.11 11.19 14.97 10.91C14.9488 10.8647 14.9283 10.8195 14.9084 10.7746C14.7609 10.4413 14.3262 10.3438 14.0685 10.6016L8.34 16.33C8.21 16.46 8.09 16.71 8.06 16.88L7.52 20.71C7.42 21.39 7.61 22.03 8.03 22.46C8.39 22.81 8.89 23 9.43 23C9.55 23 9.67 22.99 9.79 22.97L13.63 22.43C13.81 22.4 14.06 22.28 14.18 22.15L19.9013 16.4287C20.1609 16.1692 20.0629 15.7237 19.7253 15.5797C19.6873 15.5634 19.6489 15.5469 19.61 15.53Z" fill="white"/>
</svg>
