<svg width="32" height="32" viewBox="0 0 32 32" fill="none" xmlns="http://www.w3.org/2000/svg">
<circle cx="16" cy="16" r="16" fill="#012E58"/>
<path d="M19.8 6.20999C19.39 5.79999 18.68 6.07999 18.68 6.64999V10.14C18.68 11.6 19.92 12.81 21.43 12.81C22.38 12.82 23.7 12.82 24.83 12.82C25.4 12.82 25.7 12.15 25.3 11.75C23.86 10.3 21.28 7.68999 19.8 6.20999Z" fill="white"/>
<path fill-rule="evenodd" clip-rule="evenodd" d="M21.61 14.19H24.5C25.05 14.19 25.5 14.64 25.5 15.19V20.43C25.5 24 23.01 26 19.93 26H12.07C8.99 26 6.5 24 6.5 20.43V11.57C6.5 8 8.99 6 12.07 6H16.31C16.86 6 17.31 6.45 17.31 7V9.89C17.31 12.26 19.24 14.19 21.61 14.19ZM9 16.9916L12.6522 23H14.6232L10.9324 17.2647C11.963 17.1312 12.7874 16.8217 13.4058 16.3361C14.037 15.8385 14.3977 15.1466 14.4879 14.2605H17V13.0952H14.4493C14.3333 12.282 13.9662 11.6387 13.3478 11.1653H17V10H9V11.1653H9.42512C10.4042 11.1653 11.1643 11.317 11.7053 11.6204C12.2593 11.9239 12.6006 12.4155 12.7295 13.0952H9V14.2605H12.7488C12.6586 14.9888 12.3366 15.4925 11.7826 15.7717C11.2415 16.0509 10.4557 16.1905 9.42512 16.1905H9V16.9916Z" fill="white"/>
</svg>
