<svg width="32" height="32" viewBox="0 0 32 32" fill="none" xmlns="http://www.w3.org/2000/svg">
<circle cx="16" cy="16" r="16" fill="#012E58"/>
<path d="M20.19 6H11.81C8.17 6 6 8.17 6 11.81V20.19C6 23.83 8.17 26 11.81 26H20.19C23.83 26 26 23.83 26 20.19V11.81C26 8.17 23.83 6 20.19 6ZM13.97 18.9L11.72 21.15C11.57 21.3 11.38 21.37 11.19 21.37C11 21.37 10.8 21.3 10.66 21.15L9.91 20.4C9.61 20.11 9.61 19.63 9.91 19.34C10.2 19.05 10.67 19.05 10.97 19.34L11.19 19.56L12.91 17.84C13.2 17.55 13.67 17.55 13.97 17.84C14.26 18.13 14.26 18.61 13.97 18.9ZM13.97 11.9L11.72 14.15C11.57 14.3 11.38 14.37 11.19 14.37C11 14.37 10.8 14.3 10.66 14.15L9.91 13.4C9.61 13.11 9.61 12.63 9.91 12.34C10.2 12.05 10.67 12.05 10.97 12.34L11.19 12.56L12.91 10.84C13.2 10.55 13.67 10.55 13.97 10.84C14.26 11.13 14.26 11.61 13.97 11.9ZM21.56 20.62H16.31C15.9 20.62 15.56 20.28 15.56 19.87C15.56 19.46 15.9 19.12 16.31 19.12H21.56C21.98 19.12 22.31 19.46 22.31 19.87C22.31 20.28 21.98 20.62 21.56 20.62ZM21.56 13.62H16.31C15.9 13.62 15.56 13.28 15.56 12.87C15.56 12.46 15.9 12.12 16.31 12.12H21.56C21.98 12.12 22.31 12.46 22.31 12.87C22.31 13.28 21.98 13.62 21.56 13.62Z" fill="white"/>
</svg>
