<svg width="32" height="32" viewBox="0 0 32 32" fill="none" xmlns="http://www.w3.org/2000/svg">
<circle cx="16" cy="16" r="16" fill="#012E58"/>
<path d="M24.71 12.12V21.53C24.71 23.99 22.7 26 20.24 26H11.76C9.3 26 7.29 23.99 7.29 21.53V12.12C7.29 10.41 8.25 8.91998 9.66 8.16998C10.15 7.90998 10.76 8.25998 10.76 8.81998C10.76 10.41 12.06 11.71 13.65 11.71H18.35C19.94 11.71 21.24 10.41 21.24 8.81998C21.24 8.25998 21.84 7.90998 22.34 8.16998C23.75 8.91998 24.71 10.41 24.71 12.12Z" fill="white"/>
<path d="M18.35 6H13.65C12.61 6 11.76 6.84 11.76 7.88V8.82C11.76 9.86 12.6 10.7 13.64 10.7H18.35C19.39 10.7 20.23 9.86 20.23 8.82V7.88C20.24 6.84 19.39 6 18.35 6Z" fill="white"/>
</svg>
