<svg width="32" height="32" viewBox="0 0 32 32" fill="none" xmlns="http://www.w3.org/2000/svg">
<circle cx="16" cy="16" r="16" fill="#012E58"/>
<path d="M15.94 6.20995L13.53 11.82H11.12C10.72 11.82 10.33 11.85 9.95 11.93L10.95 9.52995L10.99 9.43995L11.05 9.27995C11.08 9.20995 11.1 9.14995 11.13 9.09995C12.29 6.40995 13.59 5.56995 15.94 6.20995Z" fill="white"/>
<path d="M22.73 12.09L22.71 12.08C22.11 11.91 21.5 11.82 20.88 11.82H14.62L16.87 6.59002L16.9 6.52002C17.04 6.57002 17.19 6.64002 17.34 6.69002L19.55 7.62002C20.78 8.13002 21.64 8.66002 22.17 9.30002C22.26 9.42002 22.34 9.53002 22.42 9.66002C22.51 9.80002 22.58 9.94002 22.62 10.09C22.66 10.18 22.69 10.26 22.71 10.35C22.86 10.86 22.87 11.44 22.73 12.09Z" fill="white"/>
<path d="M22.29 13.5199C21.84 13.3899 21.37 13.3199 20.88 13.3199H11.12C10.44 13.3199 9.8 13.4499 9.2 13.7099C7.46 14.4599 6.24 16.1899 6.24 18.1999V20.1499C6.24 20.3899 6.26 20.6199 6.29 20.8599C6.51 24.0399 8.21 25.7399 11.39 25.9499C11.62 25.9799 11.85 25.9999 12.1 25.9999H19.9C23.6 25.9999 25.55 24.2399 25.74 20.7399C25.75 20.5499 25.76 20.3499 25.76 20.1499V18.1999C25.76 15.9899 24.29 14.1299 22.29 13.5199ZM18.5 20.7499H13.5C13.09 20.7499 12.75 20.4099 12.75 19.9999C12.75 19.5899 13.09 19.2499 13.5 19.2499H18.5C18.91 19.2499 19.25 19.5899 19.25 19.9999C19.25 20.4099 18.91 20.7499 18.5 20.7499Z" fill="white"/>
</svg>
