<svg width="32" height="32" viewBox="0 0 32 32" fill="none" xmlns="http://www.w3.org/2000/svg">
<circle cx="16" cy="16" r="16" fill="#012E58"/>
<path d="M12.75 7.5V6C12.75 5.59 12.41 5.25 12 5.25C11.59 5.25 11.25 5.59 11.25 6V7.56C11.5 7.53 11.73 7.5 12 7.5H12.75Z" fill="white"/>
<path d="M20.75 7.56V6C20.75 5.59 20.41 5.25 20 5.25C19.59 5.25 19.25 5.59 19.25 6V7.5H20C20.27 7.5 20.5 7.53 20.75 7.56Z" fill="white"/>
<path d="M18.933 10H13.067C10.519 10 9 11.519 9 14.067V19.933C9 22.481 10.519 24 13.067 24H18.933C21.481 24 23 22.481 23 19.933V14.067C23 11.519 21.481 10 18.933 10ZM14.579 19.03L13.004 20.605C12.899 20.71 12.766 20.759 12.633 20.759C12.5 20.759 12.36 20.71 12.262 20.605L11.737 20.08C11.527 19.877 11.527 19.541 11.737 19.338C11.94 19.135 12.269 19.135 12.479 19.338L12.633 19.492L13.837 18.288C14.04 18.085 14.369 18.085 14.579 18.288C14.782 18.491 14.782 18.827 14.579 19.03ZM14.579 14.13L13.004 15.705C12.899 15.81 12.766 15.859 12.633 15.859C12.5 15.859 12.36 15.81 12.262 15.705L11.737 15.18C11.527 14.977 11.527 14.641 11.737 14.438C11.94 14.235 12.269 14.235 12.479 14.438L12.633 14.592L13.837 13.388C14.04 13.185 14.369 13.185 14.579 13.388C14.782 13.591 14.782 13.927 14.579 14.13ZM19.892 20.234H16.217C15.93 20.234 15.692 19.996 15.692 19.709C15.692 19.422 15.93 19.184 16.217 19.184H19.892C20.186 19.184 20.417 19.422 20.417 19.709C20.417 19.996 20.186 20.234 19.892 20.234ZM19.892 15.334H16.217C15.93 15.334 15.692 15.096 15.692 14.809C15.692 14.522 15.93 14.284 16.217 14.284H19.892C20.186 14.284 20.417 14.522 20.417 14.809C20.417 15.096 20.186 15.334 19.892 15.334Z" fill="white"/>
<path fill-rule="evenodd" clip-rule="evenodd" d="M20.75 7.56V9C20.75 9.41 20.41 9.75 20 9.75C19.59 9.75 19.25 9.41 19.25 9V7.5H12.75V9C12.75 9.41 12.41 9.75 12 9.75C11.59 9.75 11.25 9.41 11.25 9V7.56C8.3 7.83 7 9.73 7 12.5V21C7 24 8.5 26 12 26H20C23.5 26 25 24 25 21V12.5C25 9.73 23.7 7.83 20.75 7.56ZM14.579 14.13L13.004 15.705C12.899 15.81 12.766 15.859 12.633 15.859C12.5 15.859 12.36 15.81 12.262 15.705L11.737 15.18C11.527 14.977 11.527 14.641 11.737 14.438C11.94 14.235 12.269 14.235 12.479 14.438L12.633 14.592L13.837 13.388C14.04 13.185 14.369 13.185 14.579 13.388C14.782 13.591 14.782 13.927 14.579 14.13ZM16.217 15.334H19.892C20.186 15.334 20.417 15.096 20.417 14.809C20.417 14.522 20.186 14.284 19.892 14.284H16.217C15.93 14.284 15.692 14.522 15.692 14.809C15.692 15.096 15.93 15.334 16.217 15.334ZM14.579 19.03L13.004 20.605C12.899 20.71 12.766 20.759 12.633 20.759C12.5 20.759 12.36 20.71 12.262 20.605L11.737 20.08C11.527 19.877 11.527 19.541 11.737 19.338C11.94 19.135 12.269 19.135 12.479 19.338L12.633 19.492L13.837 18.288C14.04 18.085 14.369 18.085 14.579 18.288C14.782 18.491 14.782 18.827 14.579 19.03ZM16.217 20.234H19.892C20.186 20.234 20.417 19.996 20.417 19.709C20.417 19.422 20.186 19.184 19.892 19.184H16.217C15.93 19.184 15.692 19.422 15.692 19.709C15.692 19.996 15.93 20.234 16.217 20.234Z" fill="white"/>
</svg>
