<svg width="32" height="32" viewBox="0 0 32 32" fill="none" xmlns="http://www.w3.org/2000/svg">
<circle cx="16" cy="16" r="16" fill="#012E58"/>
<path d="M24.04 10.82L18.28 6.79C16.71 5.69 14.3 5.75 12.79 6.92L7.77999 10.83C6.77999 11.61 5.98999 13.21 5.98999 14.47V21.37C5.98999 23.92 8.05999 26 10.61 26H21.39C23.94 26 26.01 23.93 26.01 21.38V14.6C26.01 13.25 25.14 11.59 24.04 10.82ZM16.75 22C16.75 22.41 16.41 22.75 16 22.75C15.59 22.75 15.25 22.41 15.25 22V19C15.25 18.59 15.59 18.25 16 18.25C16.41 18.25 16.75 18.59 16.75 19V22Z" fill="white"/>
</svg>
