<svg width="32" height="32" viewBox="0 0 32 32" fill="none" xmlns="http://www.w3.org/2000/svg">
<circle cx="16" cy="16" r="16" fill="#012E58"/>
<path d="M24.5 14.19H21.61C19.24 14.19 17.31 12.26 17.31 9.89V7C17.31 6.45 16.86 6 16.31 6H12.07C8.99 6 6.5 8 6.5 11.57V20.43C6.5 24 8.99 26 12.07 26H19.93C23.01 26 25.5 24 25.5 20.43V15.19C25.5 14.64 25.05 14.19 24.5 14.19Z" fill="white"/>
<path d="M19.8 6.20999C19.39 5.79999 18.68 6.07999 18.68 6.64999V10.14C18.68 11.6 19.92 12.81 21.43 12.81C22.38 12.82 23.7 12.82 24.83 12.82C25.4 12.82 25.7 12.15 25.3 11.75C23.86 10.3 21.28 7.68999 19.8 6.20999Z" fill="white"/>
</svg>
