<svg width="32" height="32" viewBox="0 0 32 32" fill="none" xmlns="http://www.w3.org/2000/svg">
<circle cx="16" cy="16" r="16" fill="#012E58"/>
<path d="M21.53 11.77C21.46 11.76 21.39 11.76 21.32 11.77C19.77 11.72 18.54 10.45 18.54 8.89C18.54 7.3 19.83 6 21.43 6C23.02 6 24.32 7.29 24.32 8.89C24.31 10.45 23.08 11.72 21.53 11.77Z" fill="white"/>
<path d="M24.79 18.7C23.67 19.45 22.1 19.73 20.65 19.54C21.03 18.72 21.23 17.81 21.24 16.85C21.24 15.85 21.02 14.9 20.6 14.07C22.08 13.87 23.65 14.15 24.78 14.9C26.36 15.94 26.36 17.65 24.79 18.7Z" fill="white"/>
<path d="M10.44 11.77C10.51 11.76 10.58 11.76 10.65 11.77C12.2 11.72 13.43 10.45 13.43 8.89C13.43 7.29 12.14 6 10.54 6C8.94997 6 7.65997 7.29 7.65997 8.89C7.65997 10.45 8.88997 11.72 10.44 11.77Z" fill="white"/>
<path d="M10.55 16.85C10.55 17.82 10.76 18.74 11.14 19.57C9.73 19.72 8.26 19.42 7.18 18.71C5.6 17.66 5.6 15.95 7.18 14.9C8.25 14.18 9.75999 13.89 11.18 14.05C10.77 14.89 10.55 15.84 10.55 16.85Z" fill="white"/>
<path d="M16.12 19.87C16.04 19.86 15.95 19.86 15.86 19.87C14.02 19.81 12.55 18.3 12.55 16.44C12.56 14.54 14.09 13 16 13C17.9 13 19.44 14.54 19.44 16.44C19.43 18.3 17.97 19.81 16.12 19.87Z" fill="white"/>
<path d="M12.87 21.94C11.36 22.95 11.36 24.61 12.87 25.61C14.59 26.76 17.41 26.76 19.13 25.61C20.64 24.6 20.64 22.94 19.13 21.94C17.42 20.79 14.6 20.79 12.87 21.94Z" fill="white"/>
</svg>
