<svg width="32" height="32" viewBox="0 0 32 32" fill="none" xmlns="http://www.w3.org/2000/svg">
<circle cx="16" cy="16" r="16" fill="#012E58"/>
<path d="M13.75 24C13.75 25.2426 14.7574 26.25 16 26.25C17.2426 26.25 18.25 25.2426 18.25 24C18.25 22.7574 17.2426 21.75 16 21.75C14.7574 21.75 13.75 22.7574 13.75 24Z" fill="white"/>
<path d="M21.75 24C21.75 25.2426 22.7574 26.25 24 26.25C25.2426 26.25 26.25 25.2426 26.25 24C26.25 22.7574 25.2426 21.75 24 21.75C22.7574 21.75 21.75 22.7574 21.75 24Z" fill="white"/>
<path d="M5.75 24C5.75 25.2426 6.75736 26.25 8 26.25C9.24264 26.25 10.25 25.2426 10.25 24C10.25 22.7574 9.24264 21.75 8 21.75C6.75736 21.75 5.75 22.7574 5.75 24Z" fill="white"/>
<path d="M13.75 8C13.75 9.24264 14.7574 10.25 16 10.25C17.2426 10.25 18.25 9.24264 18.25 8C18.25 6.75736 17.2426 5.75 16 5.75C14.7574 5.75 13.75 6.75736 13.75 8Z" fill="white"/>
<path d="M15.25 23C15.25 23.41 15.59 23.75 16 23.75C16.41 23.75 16.75 23.41 16.75 23L16.75 15.75L21 15.75C22.58 15.75 23.25 16.42 23.25 18L23.25 23C23.25 23.41 23.59 23.75 24 23.75C24.41 23.75 24.75 23.41 24.75 23L24.75 18C24.75 15.58 23.42 14.25 21 14.25L16.75 14.25L16.75 9C16.75 8.59 16.41 8.25 16 8.25C15.59 8.25 15.25 8.59 15.25 9L15.25 14.25L11 14.25C8.58 14.25 7.25 15.58 7.25 18L7.25 23C7.25 23.41 7.59 23.75 8 23.75C8.41 23.75 8.75 23.41 8.75 23L8.75 18C8.75 16.42 9.42 15.75 11 15.75L15.25 15.75L15.25 23Z" fill="white"/>
</svg>
