<svg width="32" height="32" viewBox="0 0 32 32" fill="none" xmlns="http://www.w3.org/2000/svg">
<circle cx="16" cy="16" r="16" fill="#012E58"/>
<path d="M15.94 6.21001L13.53 11.82H11.12C10.72 11.82 10.33 11.85 9.95001 11.93L10.95 9.53001L10.99 9.44001L11.05 9.28001C11.08 9.21001 11.1 9.15001 11.13 9.10001C12.29 6.41001 13.59 5.57001 15.94 6.21001Z" fill="white"/>
<path d="M22.73 12.09L22.71 12.08C22.11 11.91 21.5 11.82 20.88 11.82H14.62L16.87 6.59002L16.9 6.52002C17.04 6.57002 17.19 6.64002 17.34 6.69002L19.55 7.62002C20.78 8.13002 21.64 8.66002 22.17 9.30002C22.26 9.42002 22.34 9.53002 22.42 9.66002C22.51 9.80002 22.58 9.94002 22.62 10.09C22.66 10.18 22.69 10.26 22.71 10.35C22.86 10.86 22.87 11.44 22.73 12.09Z" fill="white"/>
<path d="M22.29 13.52C21.84 13.39 21.37 13.32 20.88 13.32H11.12C10.44 13.32 9.79999 13.45 9.19999 13.71C7.45999 14.46 6.23999 16.19 6.23999 18.2V20.15C6.23999 20.39 6.25999 20.62 6.28999 20.86C6.50999 24.04 8.20999 25.74 11.39 25.95C11.62 25.98 11.85 26 12.1 26H19.9C23.6 26 25.55 24.24 25.74 20.74C25.75 20.55 25.76 20.35 25.76 20.15V18.2C25.76 15.99 24.29 14.13 22.29 13.52ZM18.5 20.75H13.5C13.09 20.75 12.75 20.41 12.75 20C12.75 19.59 13.09 19.25 13.5 19.25H18.5C18.91 19.25 19.25 19.59 19.25 20C19.25 20.41 18.91 20.75 18.5 20.75Z" fill="white"/>
</svg>
